<?xml version="1.0" encoding="UTF-8" standalone="no"?>
<!-- Creator: CorelDRAW -->

<svg
   xmlns:dc="http://purl.org/dc/elements/1.1/"
   xmlns:cc="http://creativecommons.org/ns#"
   xmlns:rdf="http://www.w3.org/1999/02/22-rdf-syntax-ns#"
   xmlns:svg="http://www.w3.org/2000/svg"
   xmlns="http://www.w3.org/2000/svg"
   xmlns:sodipodi="http://sodipodi.sourceforge.net/DTD/sodipodi-0.dtd"
   xmlns:inkscape="http://www.inkscape.org/namespaces/inkscape"
   xml:space="preserve"
   width="240.77"
   height="792.58002"
   style="fill-rule:evenodd"
   viewBox="0 0 2675.2222 8806.4446"
   id="svg2"
   version="1.1"
   inkscape:version="0.48.1 "
   sodipodi:docname="DoubleGauss1text.svg"><metadata
   id="metadata467"><rdf:RDF><cc:Work
       rdf:about=""><dc:format>image/svg+xml</dc:format><dc:type
         rdf:resource="http://purl.org/dc/dcmitype/StillImage" /></cc:Work></rdf:RDF></metadata><sodipodi:namedview
   pagecolor="#ffffff"
   bordercolor="#666666"
   borderopacity="1"
   objecttolerance="10"
   gridtolerance="10"
   guidetolerance="10"
   inkscape:pageopacity="0"
   inkscape:pageshadow="2"
   inkscape:window-width="1920"
   inkscape:window-height="1178"
   id="namedview465"
   showgrid="false"
   fit-margin-top="20"
   fit-margin-left="20"
   fit-margin-right="0"
   fit-margin-bottom="0"
   inkscape:zoom="0.95353535"
   inkscape:cx="241.57349"
   inkscape:cy="391.35733"
   inkscape:window-x="1912"
   inkscape:window-y="-8"
   inkscape:window-maximized="1"
   inkscape:current-layer="Layer_x0020_1" />
 <defs
   id="defs4">
  <style
   type="text/css"
   id="style6">
   
    .str0 {stroke:#000000;stroke-width:21}
    .fil0 {fill:none}
    .fil2 {fill:#000000}
    .fil1 {fill:#FFFFFF}
   
  </style>
 </defs>
 <g
   id="Layer_x0020_1"
   transform="translate(-2810.7778,-868.66658)">
  <g
   id="g9"
   transform="translate(-88.888888,-177.77779)">
   <path
   class="fil0 str0"
   d="m 3548,2500 1404,0"
   id="path11"
   inkscape:connector-curvature="0"
   style="fill:none;stroke:#000000;stroke-width:21" />
   <rect
   class="fil1"
   x="4074"
   y="2468"
   width="156"
   height="63"
   id="rect13"
   style="fill:#ffffff" />
   <path
   class="fil0 str0"
   d="m 4220,1802 c -196,349 -196,1047 0,1395"
   id="path15"
   inkscape:connector-curvature="0"
   style="fill:none;stroke:#000000;stroke-width:21" />
   <path
   class="fil0 str0"
   d="m 4282,1801 c -70,347 -70,1045 0,1397"
   id="path17"
   inkscape:connector-curvature="0"
   style="fill:none;stroke:#000000;stroke-width:21" />
   <rect
   class="fil1"
   x="4260"
   y="2464"
   width="71"
   height="71"
   id="rect19"
   style="fill:#ffffff" />
   <path
   class="fil0 str0"
   d="m 4374,1802 c -151,349 -151,1047 0,1395"
   id="path21"
   inkscape:connector-curvature="0"
   style="fill:none;stroke:#000000;stroke-width:21" />
   <path
   class="fil0 str0"
   d="m 4500,1802 c -227,349 -227,1047 0,1395"
   id="path23"
   inkscape:connector-curvature="0"
   style="fill:none;stroke:#000000;stroke-width:21" />
   <path
   class="fil0 str0"
   d="m 4213,1806 76,0"
   id="path25"
   inkscape:connector-curvature="0"
   style="fill:none;stroke:#000000;stroke-width:21" />
   <path
   class="fil0 str0"
   d="m 4367,1806 136,0"
   id="path27"
   inkscape:connector-curvature="0"
   style="fill:none;stroke:#000000;stroke-width:21" />
   <path
   class="fil0 str0"
   d="m 4213,3195 75,0 -1,0"
   id="path29"
   inkscape:connector-curvature="0"
   style="fill:none;stroke:#000000;stroke-width:21" />
   <path
   class="fil0 str0"
   d="m 4368,3195 143,1 -46,-1"
   id="path31"
   inkscape:connector-curvature="0"
   style="fill:none;stroke:#000000;stroke-width:21" />
  </g>
  <g
   id="g33"
   transform="translate(-88.888888,-177.77779)">
   <path
   class="fil0 str0"
   d="m 4253,3781 0,1437"
   id="path35"
   inkscape:connector-curvature="0"
   style="fill:none;stroke:#000000;stroke-width:21" />
   <rect
   class="fil1"
   x="4197"
   y="4136"
   width="111"
   height="728"
   id="rect37"
   style="fill:#ffffff" />
   <path
   class="fil0 str0"
   d="m 3358,4500 1784,0"
   id="path39"
   inkscape:connector-curvature="0"
   style="fill:none;stroke:#000000;stroke-width:21" />
   <rect
   class="fil1"
   x="3506"
   y="4461"
   width="96"
   height="78"
   id="rect41"
   style="fill:#ffffff" />
   <path
   class="fil0 str0"
   d="m 3614,3891 c -144,306 -144,914 0,1217"
   id="path43"
   inkscape:connector-curvature="0"
   style="fill:none;stroke:#000000;stroke-width:21" />
   <path
   class="fil0 str0"
   d="m 3631,3890 c -38,307 -38,916 0,1219"
   id="path45"
   inkscape:connector-curvature="0"
   style="fill:none;stroke:#000000;stroke-width:21" />
   <rect
   class="fil1"
   x="3714"
   y="4467"
   width="59"
   height="65"
   id="rect47"
   style="fill:#ffffff" />
   <path
   class="fil0 str0"
   d="m 3818,3891 c -139,302 -139,910 0,1217"
   id="path49"
   inkscape:connector-curvature="0"
   style="fill:none;stroke:#000000;stroke-width:21" />
   <path
   class="fil0 str0"
   d="m 3906,3891 c -178,306 -178,914 0,1217"
   id="path51"
   inkscape:connector-curvature="0"
   style="fill:none;stroke:#000000;stroke-width:21" />
   <rect
   class="fil1"
   x="4766"
   y="4467"
   width="66"
   height="66"
   id="rect53"
   style="fill:#ffffff" />
   <path
   class="fil0 str0"
   d="m 4662,3903 c 142,303 142,900 0,1193"
   id="path55"
   inkscape:connector-curvature="0"
   style="fill:none;stroke:#000000;stroke-width:21" />
   <path
   class="fil0 str0"
   d="m 4763,3900 c 88,304 88,904 0,1199"
   id="path57"
   inkscape:connector-curvature="0"
   style="fill:none;stroke:#000000;stroke-width:21" />
   <rect
   class="fil1"
   x="4943"
   y="4469"
   width="81"
   height="61"
   id="rect59"
   style="fill:#ffffff" />
   <path
   class="fil0 str0"
   d="m 4915,3896 c 35,300 35,904 0,1207"
   id="path61"
   inkscape:connector-curvature="0"
   style="fill:none;stroke:#000000;stroke-width:21" />
   <path
   class="fil0 str0"
   d="m 4931,3895 c 124,304 124,908 0,1209"
   id="path63"
   inkscape:connector-curvature="0"
   style="fill:none;stroke:#000000;stroke-width:21" />
   <path
   class="fil0 str0"
   d="m 3607,3900 35,0"
   id="path65"
   inkscape:connector-curvature="0"
   style="fill:none;stroke:#000000;stroke-width:21" />
   <path
   class="fil0 str0"
   d="m 3809,3900 102,0"
   id="path67"
   inkscape:connector-curvature="0"
   style="fill:none;stroke:#000000;stroke-width:21" />
   <path
   class="fil0 str0"
   d="m 4656,3907 2,0 113,0"
   id="path69"
   inkscape:connector-curvature="0"
   style="fill:none;stroke:#000000;stroke-width:21" />
   <path
   class="fil0 str0"
   d="m 4908,3904 34,0"
   id="path71"
   inkscape:connector-curvature="0"
   style="fill:none;stroke:#000000;stroke-width:21" />
   <path
   class="fil0 str0"
   d="m 4657,5092 113,0"
   id="path73"
   inkscape:connector-curvature="0"
   style="fill:none;stroke:#000000;stroke-width:21" />
   <path
   class="fil0 str0"
   d="m 4907,5095 33,0"
   id="path75"
   inkscape:connector-curvature="0"
   style="fill:none;stroke:#000000;stroke-width:21" />
   <path
   class="fil0 str0"
   d="m 3607,5101 31,0"
   id="path77"
   inkscape:connector-curvature="0"
   style="fill:none;stroke:#000000;stroke-width:21" />
   <path
   class="fil0 str0"
   d="m 3809,5102 102,0"
   id="path79"
   inkscape:connector-curvature="0"
   style="fill:none;stroke:#000000;stroke-width:21" />
  </g>
  <g
   id="g81"
   transform="translate(-88.888888,-177.77779)">
   <path
   class="fil0 str0"
   d="m 4246,5812 0,1376"
   id="path83"
   inkscape:connector-curvature="0"
   style="fill:none;stroke:#000000;stroke-width:21" />
   <rect
   class="fil1"
   x="4203"
   y="6082"
   width="80"
   height="836"
   id="rect85"
   style="fill:#ffffff" />
   <path
   class="fil0 str0"
   d="m 3105,6499 2290,0"
   id="path87"
   inkscape:connector-curvature="0"
   style="fill:none;stroke:#000000;stroke-width:21" />
   <rect
   class="fil1"
   x="5042"
   y="6475"
   width="138"
   height="50"
   id="rect89"
   style="fill:#ffffff" />
   <path
   class="fil0 str0"
   d="m 5048,5862 c 179,319 179,957 0,1275"
   id="path91"
   inkscape:connector-curvature="0"
   style="fill:none;stroke:#000000;stroke-width:21" />
   <path
   class="fil0 str0"
   d="m 5007,5863 c 41,320 41,956 0,1273"
   id="path93"
   inkscape:connector-curvature="0"
   style="fill:none;stroke:#000000;stroke-width:21" />
   <rect
   class="fil1"
   x="4525"
   y="6473"
   width="480"
   height="55"
   id="rect95"
   style="fill:#ffffff" />
   <path
   class="fil0 str0"
   d="m 4896,5862 c 151,320 151,955 0,1271"
   id="path97"
   inkscape:connector-curvature="0"
   style="fill:none;stroke:#000000;stroke-width:21" />
   <path
   class="fil0 str0"
   d="m 4844,5866 c -124,323 -124,957 0,1268"
   id="path99"
   inkscape:connector-curvature="0"
   style="fill:none;stroke:#000000;stroke-width:21" />
   <path
   class="fil0 str0"
   d="m 4352,5934 c 228,281 228,846 0,1132"
   id="path101"
   inkscape:connector-curvature="0"
   style="fill:none;stroke:#000000;stroke-width:21" />
   <path
   class="fil0 str0"
   d="m 5001,5868 54,0"
   id="path103"
   inkscape:connector-curvature="0"
   style="fill:none;stroke:#000000;stroke-width:21" />
   <path
   class="fil0 str0"
   d="m 5003,7130 51,0"
   id="path105"
   inkscape:connector-curvature="0"
   style="fill:none;stroke:#000000;stroke-width:21" />
   <path
   class="fil0 str0"
   d="m 4902,7127 -523,0 -25,-68"
   id="path107"
   inkscape:connector-curvature="0"
   style="fill:none;stroke:#000000;stroke-width:21" />
   <path
   class="fil0 str0"
   d="m 4902,5868 -523,0 -27,76"
   id="path109"
   inkscape:connector-curvature="0"
   style="fill:none;stroke:#000000;stroke-width:21" />
   <rect
   class="fil1"
   x="3333"
   y="6473"
   width="151"
   height="53"
   id="rect111"
   style="fill:#ffffff" />
   <path
   class="fil0 str0"
   d="m 3463,5862 c -180,319 -180,957 0,1275"
   id="path113"
   inkscape:connector-curvature="0"
   style="fill:none;stroke:#000000;stroke-width:21" />
   <path
   class="fil0 str0"
   d="m 3517,5863 c -41,320 -41,956 0,1273"
   id="path115"
   inkscape:connector-curvature="0"
   style="fill:none;stroke:#000000;stroke-width:21" />
   <rect
   class="fil1"
   x="3518"
   y="6471"
   width="445"
   height="58"
   id="rect117"
   style="fill:#ffffff" />
   <path
   class="fil0 str0"
   d="m 3626,5865 c -151,320 -151,955 0,1270"
   id="path119"
   inkscape:connector-curvature="0"
   style="fill:none;stroke:#000000;stroke-width:21" />
   <path
   class="fil0 str0"
   d="m 3677,5866 c 124,323 124,957 0,1268"
   id="path121"
   inkscape:connector-curvature="0"
   style="fill:none;stroke:#000000;stroke-width:21" />
   <path
   class="fil0 str0"
   d="m 4136,5934 c -228,281 -228,846 0,1132"
   id="path123"
   inkscape:connector-curvature="0"
   style="fill:none;stroke:#000000;stroke-width:21" />
   <path
   class="fil0 str0"
   d="m 3456,5866 66,0"
   id="path125"
   inkscape:connector-curvature="0"
   style="fill:none;stroke:#000000;stroke-width:21" />
   <path
   class="fil0 str0"
   d="m 3622,5868 487,0 28,76"
   id="path127"
   inkscape:connector-curvature="0"
   style="fill:none;stroke:#000000;stroke-width:21" />
   <path
   class="fil0 str0"
   d="m 3457,7130 65,0"
   id="path129"
   inkscape:connector-curvature="0"
   style="fill:none;stroke:#000000;stroke-width:21" />
   <path
   class="fil0 str0"
   d="m 3621,7128 479,1 37,-71"
   id="path131"
   inkscape:connector-curvature="0"
   style="fill:none;stroke:#000000;stroke-width:21" />
  </g>
  <g
   id="g133"
   transform="translate(-88.888888,-177.77779)">
   <path
   class="fil0 str0"
   d="m 4263,7840 0,1320"
   id="path135"
   inkscape:connector-curvature="0"
   style="fill:none;stroke:#000000;stroke-width:21" />
   <rect
   class="fil1"
   x="4234"
   y="8123"
   width="59"
   height="755"
   id="rect137"
   style="fill:#ffffff" />
   <path
   class="fil0 str0"
   d="m 3301,8502 1898,-4"
   id="path139"
   inkscape:connector-curvature="0"
   style="fill:none;stroke:#000000;stroke-width:21" />
   <rect
   class="fil1"
   x="3479"
   y="8472"
   width="199"
   height="56"
   id="rect141"
   style="fill:#ffffff" />
   <path
   class="fil0 str0"
   d="m 3613,7830 c -185,336 -185,1006 0,1339"
   id="path143"
   inkscape:connector-curvature="0"
   style="fill:none;stroke:#000000;stroke-width:21" />
   <path
   class="fil0 str0"
   d="m 3719,7831 c -51,338 -51,1007 0,1337"
   id="path145"
   inkscape:connector-curvature="0"
   style="fill:none;stroke:#000000;stroke-width:21" />
   <rect
   class="fil1"
   x="3724"
   y="8471"
   width="348"
   height="58"
   id="rect147"
   style="fill:#ffffff" />
   <path
   class="fil0 str0"
   d="m 3890,7901 c -225,299 -225,898 0,1198"
   id="path149"
   inkscape:connector-curvature="0"
   style="fill:none;stroke:#000000;stroke-width:21" />
   <path
   class="fil0 str0"
   d="m 4219,8055 c -197,220 -197,664 0,890"
   id="path151"
   inkscape:connector-curvature="0"
   style="fill:none;stroke:#000000;stroke-width:21" />
   <rect
   class="fil1"
   x="4453"
   y="8471"
   width="338"
   height="58"
   id="rect153"
   style="fill:#ffffff" />
   <path
   class="fil0 str0"
   d="m 4320,8080 c 170,209 170,629 0,840"
   id="path155"
   inkscape:connector-curvature="0"
   style="fill:none;stroke:#000000;stroke-width:21" />
   <path
   class="fil0 str0"
   d="m 4611,7930 c 247,283 247,853 0,1140"
   id="path157"
   inkscape:connector-curvature="0"
   style="fill:none;stroke:#000000;stroke-width:21" />
   <rect
   class="fil1"
   x="4854"
   y="8465"
   width="196"
   height="70"
   id="rect159"
   style="fill:#ffffff" />
   <path
   class="fil0 str0"
   d="m 4849,7915 c 0,390 0,780 0,1169"
   id="path161"
   inkscape:connector-curvature="0"
   style="fill:none;stroke:#000000;stroke-width:21" />
   <path
   class="fil0 str0"
   d="m 4944,7917 c 141,286 141,869 0,1166"
   id="path163"
   inkscape:connector-curvature="0"
   style="fill:none;stroke:#000000;stroke-width:21" />
   <path
   class="fil0 str0"
   d="m 3983,7896 c 0,403 0,805 0,1208"
   id="path165"
   inkscape:connector-curvature="0"
   style="fill:none;stroke:#000000;stroke-width:21" />
   <path
   class="fil0 str0"
   d="m 4551,7929 c 0,381 0,761 0,1142"
   id="path167"
   inkscape:connector-curvature="0"
   style="fill:none;stroke:#000000;stroke-width:21" />
   <path
   class="fil0 str0"
   d="m 3606,7834 119,0"
   id="path169"
   inkscape:connector-curvature="0"
   style="fill:none;stroke:#000000;stroke-width:21" />
   <path
   class="fil0 str0"
   d="m 3887,7905 247,0 83,158"
   id="path171"
   inkscape:connector-curvature="0"
   style="fill:none;stroke:#000000;stroke-width:21" />
   <path
   class="fil0 str0"
   d="m 4617,7935 -233,0 -63,154"
   id="path173"
   inkscape:connector-curvature="0"
   style="fill:none;stroke:#000000;stroke-width:21" />
   <path
   class="fil0 str0"
   d="m 4838,7918 114,0"
   id="path175"
   inkscape:connector-curvature="0"
   style="fill:none;stroke:#000000;stroke-width:21" />
   <path
   class="fil0 str0"
   d="m 4842,9082 107,0"
   id="path177"
   inkscape:connector-curvature="0"
   style="fill:none;stroke:#000000;stroke-width:21" />
   <path
   class="fil0 str0"
   d="m 4616,9066 -225,0 -72,-156"
   id="path179"
   inkscape:connector-curvature="0"
   style="fill:none;stroke:#000000;stroke-width:21" />
   <path
   class="fil0 str0"
   d="m 3884,9097 256,1 75,-163"
   id="path181"
   inkscape:connector-curvature="0"
   style="fill:none;stroke:#000000;stroke-width:21" />
   <path
   class="fil0 str0"
   d="m 3607,9164 117,0"
   id="path183"
   inkscape:connector-curvature="0"
   style="fill:none;stroke:#000000;stroke-width:21" />
   <path
   class="fil0 str0"
   d="m 3607,9168 117,0"
   id="path185"
   inkscape:connector-curvature="0"
   style="fill:none;stroke:#000000;stroke-width:21" />
  </g>
  <path
   class="fil2"
   d="m 3183.1112,9183.2222 0,-91 -27,0 0,-28 86,0 0,28 -26,0 0,91 -33,0 z"
   id="path187"
   inkscape:connector-curvature="0"
   style="fill:#000000" />
  <path
   class="fil2"
   d="m 3319.1112,9142.2222 c 0,-6 -2,-11 -5,-15 -4,-4 -9,-6 -14,-6 -6,0 -11,2 -14,6 -4,4 -5,9 -5,15 0,7 1,12 5,15 3,4 8,6 14,6 5,0 10,-2 14,-6 3,-3 5,-8 5,-15 z m 25,-41 0,82 -26,0 0,-13 c -4,6 -9,10 -13,13 -5,2 -11,4 -17,4 -11,0 -20,-4 -26,-12 -7,-8 -10,-19 -10,-33 0,-13 3,-24 10,-32 7,-7 16,-11 28,-11 6,0 11,1 16,4 4,2 8,6 11,12 l 0,-14 27,0 z"
   id="path189"
   inkscape:connector-curvature="0"
   style="fill:#000000" />
  <path
   class="fil2"
   d="m 3362.1112,9220.2222 23,-49 -33,-70 32,0 11,30 c 1,2 2,5 3,7 0,2 1,4 1,6 0,-2 1,-4 2,-6 0,-2 1,-5 2,-7 l 12,-30 31,0 -52,119 -32,0 z"
   id="path191"
   inkscape:connector-curvature="0"
   style="fill:#000000" />
  <path
   class="fil2"
   d="m 3456.1112,9183.2222 0,-126 29,0 0,126 -29,0 z"
   id="path193"
   inkscape:connector-curvature="0"
   style="fill:#000000" />
  <path
   class="fil2"
   d="m 3565.1112,9143.2222 c 0,-7 -1,-11 -5,-15 -3,-3 -7,-5 -12,-5 -5,0 -10,2 -13,5 -3,4 -4,8 -4,15 0,6 1,10 4,14 3,3 8,5 13,5 5,0 9,-2 12,-5 4,-4 5,-8 5,-14 z m 29,0 c 0,5 -1,11 -4,16 -2,6 -5,10 -10,15 -4,4 -9,7 -15,9 -5,2 -11,4 -17,4 -6,0 -12,-2 -18,-4 -5,-2 -10,-5 -15,-9 -4,-4 -7,-9 -10,-15 -2,-5 -3,-11 -3,-16 0,-7 1,-12 3,-17 3,-6 6,-11 10,-15 5,-4 10,-7 15,-9 6,-2 12,-3 18,-3 6,0 12,1 18,3 5,2 10,5 14,9 5,4 8,9 10,15 3,5 4,11 4,17 z"
   id="path195"
   inkscape:connector-curvature="0"
   style="fill:#000000" />
  <path
   class="fil2"
   d="m 3611.1112,9183.2222 0,-82 27,0 0,20 c 3,-8 7,-13 12,-16 4,-4 10,-6 17,-6 1,0 3,0 4,1 1,0 2,0 3,0 l -2,26 c -2,0 -4,-1 -6,-1 -1,0 -3,0 -4,0 -7,0 -13,2 -17,6 -4,4 -5,10 -5,18 l 0,34 -29,0 z"
   id="path197"
   inkscape:connector-curvature="0"
   style="fill:#000000" />
  <path
   class="fil2"
   d="m 3694.1112,9156.2222 30,0 -25,51 -23,0 18,-51 z"
   id="path199"
   inkscape:connector-curvature="0"
   style="fill:#000000" />
  <path
   class="fil2"
   d="m 3808.1112,9183.2222 0,-91 -26,0 0,-28 85,0 0,28 -26,0 0,91 -33,0 z"
   id="path201"
   inkscape:connector-curvature="0"
   style="fill:#000000" />
  <path
   class="fil2"
   d="m 3944.1112,9142.2222 c 0,-6 -2,-11 -5,-15 -4,-4 -8,-6 -14,-6 -6,0 -11,2 -14,6 -4,4 -5,9 -5,15 0,7 1,12 5,15 3,4 8,6 14,6 6,0 10,-2 14,-6 3,-3 5,-8 5,-15 z m 25,-41 0,82 -26,0 0,-13 c -4,6 -8,10 -13,13 -5,2 -10,4 -17,4 -11,0 -20,-4 -26,-12 -7,-8 -10,-19 -10,-33 0,-13 3,-24 10,-32 7,-7 16,-11 28,-11 6,0 12,1 16,4 5,2 8,6 12,12 l 0,-14 26,0 z"
   id="path203"
   inkscape:connector-curvature="0"
   style="fill:#000000" />
  <path
   class="fil2"
   d="m 3987.1112,9220.2222 23,-49 -33,-70 32,0 11,30 c 1,2 2,5 3,7 0,2 1,4 1,6 1,-2 1,-4 2,-6 0,-2 1,-5 2,-7 l 12,-30 31,0 -52,119 -32,0 z"
   id="path205"
   inkscape:connector-curvature="0"
   style="fill:#000000" />
  <path
   class="fil2"
   d="m 4081.1112,9183.2222 0,-126 29,0 0,126 -29,0 z"
   id="path207"
   inkscape:connector-curvature="0"
   style="fill:#000000" />
  <path
   class="fil2"
   d="m 4190.1112,9143.2222 c 0,-7 -1,-11 -4,-15 -4,-3 -8,-5 -13,-5 -5,0 -9,2 -13,5 -3,4 -4,8 -4,15 0,6 1,10 4,14 3,3 8,5 13,5 5,0 10,-2 13,-5 3,-4 4,-8 4,-14 z m 29,0 c 0,5 -1,11 -3,16 -3,6 -6,10 -10,15 -5,4 -10,7 -15,9 -6,2 -12,4 -18,4 -6,0 -12,-2 -18,-4 -5,-2 -10,-5 -14,-9 -5,-4 -8,-9 -10,-15 -3,-5 -4,-11 -4,-16 0,-7 1,-12 4,-17 2,-6 5,-11 10,-15 4,-4 9,-7 14,-9 6,-2 12,-3 18,-3 6,0 12,1 18,3 5,2 10,5 15,9 4,4 7,9 10,15 2,5 3,11 3,17 z"
   id="path209"
   inkscape:connector-curvature="0"
   style="fill:#000000" />
  <path
   class="fil2"
   d="m 4236.1112,9183.2222 0,-82 27,0 0,20 c 3,-8 7,-13 12,-16 5,-4 11,-6 18,-6 1,0 2,0 3,1 1,0 2,0 4,0 l -3,26 c -2,0 -4,-1 -5,-1 -2,0 -4,0 -5,0 -7,0 -13,2 -17,6 -3,4 -5,10 -5,18 l 0,34 -29,0 z"
   id="path211"
   inkscape:connector-curvature="0"
   style="fill:#000000" />
  <path
   class="fil2"
   d="m 4446.1112,9183.2222 -10,-12 c -6,5 -12,9 -18,12 -6,2 -13,4 -21,4 -11,0 -19,-4 -26,-10 -7,-6 -10,-14 -10,-24 0,-7 2,-14 6,-19 5,-6 12,-12 22,-17 -4,-4 -7,-8 -9,-12 -2,-4 -2,-8 -2,-12 0,-8 3,-15 9,-20 6,-5 14,-8 24,-8 10,0 19,3 25,8 6,5 10,12 10,21 0,6 -2,11 -6,16 -3,5 -8,10 -15,14 l 14,15 c 3,-2 6,-5 8,-8 3,-2 6,-5 9,-9 l 17,18 c -3,3 -6,6 -8,9 -3,3 -6,5 -8,8 l 25,26 -36,0 z m -26,-28 -20,-21 c -3,3 -6,6 -8,9 -2,3 -2,6 -2,8 0,4 1,7 3,9 3,2 6,4 9,4 3,0 6,-1 8,-3 3,-1 6,-3 10,-6 z m -9,-45 4,-3 c 3,-2 5,-4 6,-7 2,-2 2,-4 2,-6 0,-3 -1,-6 -2,-7 -2,-2 -5,-3 -8,-3 -3,0 -6,1 -8,3 -2,2 -3,4 -3,8 0,1 1,2 1,4 1,2 2,4 4,6 l 4,5 z"
   id="path213"
   inkscape:connector-curvature="0"
   style="fill:#000000" />
  <path
   class="fil2"
   d="m 4551.1112,9183.2222 0,-119 32,0 0,47 43,0 0,-47 33,0 0,119 -33,0 0,-48 -43,0 0,48 -32,0 z"
   id="path215"
   inkscape:connector-curvature="0"
   style="fill:#000000" />
  <path
   class="fil2"
   d="m 4741.1112,9143.2222 c 0,-7 -2,-11 -5,-15 -3,-3 -7,-5 -13,-5 -5,0 -9,2 -12,5 -3,4 -5,8 -5,15 0,6 2,10 5,14 3,3 7,5 12,5 6,0 10,-2 13,-5 3,-4 5,-8 5,-14 z m 28,0 c 0,5 -1,11 -3,16 -2,6 -6,10 -10,15 -5,4 -10,7 -15,9 -6,2 -11,4 -18,4 -6,0 -12,-2 -17,-4 -6,-2 -11,-5 -15,-9 -4,-4 -8,-9 -10,-15 -2,-5 -3,-11 -3,-16 0,-7 1,-12 3,-17 2,-6 6,-11 10,-15 4,-4 9,-7 15,-9 5,-2 11,-3 17,-3 7,0 13,1 18,3 6,2 11,5 15,9 4,4 8,9 10,15 2,5 3,11 3,17 z"
   id="path217"
   inkscape:connector-curvature="0"
   style="fill:#000000" />
  <path
   class="fil2"
   d="m 4812.1112,9142.2222 c 0,7 2,12 5,15 3,4 8,6 14,6 6,0 10,-2 14,-5 3,-4 5,-9 5,-16 0,-6 -2,-11 -5,-15 -4,-3 -8,-5 -14,-5 -6,0 -11,2 -14,5 -3,4 -5,9 -5,15 z m -26,-85 28,0 0,43 c 0,4 0,7 0,9 0,2 -1,4 -1,6 3,-6 7,-10 12,-13 4,-2 10,-3 17,-3 11,0 20,4 26,12 7,8 11,18 11,31 0,14 -4,25 -11,33 -7,8 -16,12 -27,12 -6,0 -11,-2 -16,-5 -4,-2 -8,-6 -12,-12 l 0,13 -27,0 0,-126 z"
   id="path219"
   inkscape:connector-curvature="0"
   style="fill:#000000" />
  <path
   class="fil2"
   d="m 4888.1112,9177.2222 6,-23 c 5,4 9,7 14,9 5,2 11,3 16,3 3,0 6,-1 8,-2 2,-1 3,-3 3,-5 0,-4 -4,-6 -12,-8 -2,-1 -4,-1 -6,-2 -8,-2 -15,-5 -19,-9 -3,-4 -5,-9 -5,-15 0,-8 3,-14 9,-19 6,-5 14,-7 24,-7 5,0 11,0 16,1 5,2 11,4 17,6 l -6,20 c -4,-3 -8,-5 -12,-6 -4,-1 -8,-2 -12,-2 -3,0 -6,1 -7,2 -2,1 -3,2 -3,4 0,3 4,5 11,7 2,1 3,1 4,2 10,2 17,6 21,10 4,4 6,9 6,15 0,9 -3,16 -9,21 -7,5 -15,8 -26,8 -7,0 -14,-1 -20,-3 -6,-2 -12,-4 -18,-7 z"
   id="path221"
   inkscape:connector-curvature="0"
   style="fill:#000000" />
  <path
   class="fil2"
   d="m 5035.1112,9143.2222 c 0,-7 -2,-11 -5,-15 -3,-3 -7,-5 -12,-5 -6,0 -10,2 -13,5 -3,4 -4,8 -4,15 0,6 1,10 4,14 3,3 7,5 13,5 5,0 9,-2 12,-5 3,-4 5,-8 5,-14 z m 29,0 c 0,5 -1,11 -4,16 -2,6 -5,10 -10,15 -4,4 -9,7 -15,9 -5,2 -11,4 -17,4 -6,0 -12,-2 -18,-4 -5,-2 -10,-5 -15,-9 -4,-4 -7,-9 -10,-15 -2,-5 -3,-11 -3,-16 0,-7 1,-12 3,-17 3,-6 6,-11 10,-15 5,-4 10,-7 15,-9 6,-2 11,-3 18,-3 6,0 12,1 18,3 5,2 10,5 14,9 5,4 8,9 10,15 3,5 4,11 4,17 z"
   id="path223"
   inkscape:connector-curvature="0"
   style="fill:#000000" />
  <path
   class="fil2"
   d="m 5080.1112,9183.2222 0,-82 27,0 0,17 c 4,-7 8,-12 13,-15 5,-3 11,-4 18,-4 6,0 11,0 15,2 4,2 7,4 10,8 2,2 4,6 4,10 1,4 2,9 2,17 l 0,47 -29,0 0,-44 c 0,-6 -1,-11 -3,-14 -3,-3 -6,-4 -11,-4 -6,0 -10,2 -13,6 -3,5 -4,12 -4,22 l 0,34 -29,0 z"
   id="path225"
   inkscape:connector-curvature="0"
   style="fill:#000000" />
  <path
   class="fil2"
   d="m 3369.1112,9345.2222 c 5,5 10,9 14,12 5,3 10,4 14,4 5,0 8,-1 11,-3 3,-3 4,-6 4,-9 0,-4 -1,-7 -3,-9 -3,-3 -8,-5 -17,-7 -11,-3 -20,-7 -25,-12 -4,-5 -7,-12 -7,-21 0,-11 4,-21 12,-28 7,-7 17,-11 29,-11 7,0 13,1 19,3 6,2 11,4 17,8 l -10,23 c -4,-3 -8,-5 -12,-7 -4,-1 -8,-2 -11,-2 -4,0 -7,1 -10,3 -2,1 -3,4 -3,7 0,3 1,5 3,7 2,2 6,3 12,5 1,0 1,0 2,1 13,3 22,7 26,11 3,3 5,7 6,11 2,4 2,8 2,13 0,13 -4,23 -12,31 -8,8 -19,11 -33,11 -9,0 -16,-1 -23,-4 -7,-3 -13,-7 -20,-13 l 15,-24 z"
   id="path227"
   inkscape:connector-curvature="0"
   style="fill:#000000" />
  <path
   class="fil2"
   d="m 3515.1112,9332.2222 c 0,-5 -2,-9 -5,-12 -3,-2 -7,-4 -11,-4 -5,0 -9,1 -12,4 -2,3 -4,6 -5,12 l 33,0 z m 29,16 -63,0 c 0,6 2,11 5,15 3,3 8,5 14,5 4,0 8,-1 11,-3 3,-1 5,-4 7,-7 l 21,9 c -2,6 -7,11 -13,14 -7,4 -15,5 -25,5 -14,0 -26,-4 -34,-11 -9,-8 -13,-19 -13,-32 0,-13 4,-23 13,-32 8,-8 19,-13 33,-13 13,0 24,5 32,13 8,9 12,21 12,36 l 0,1 z"
   id="path229"
   inkscape:connector-curvature="0"
   style="fill:#000000" />
  <path
   class="fil2"
   d="m 3560.1112,9383.2222 0,-82 28,0 0,19 c 3,-7 6,-12 11,-15 5,-4 11,-6 18,-6 1,0 2,0 3,0 2,1 3,1 4,1 l -3,26 c -1,0 -3,-1 -5,-1 -2,0 -3,-1 -5,-1 -7,0 -12,3 -16,7 -4,4 -6,10 -6,18 l 0,34 -29,0 z"
   id="path231"
   inkscape:connector-curvature="0"
   style="fill:#000000" />
  <path
   class="fil2"
   d="m 3634.1112,9275.2222 c 0,-4 2,-8 5,-11 3,-3 7,-4 11,-4 4,0 8,1 11,4 3,3 5,7 5,11 0,5 -2,9 -5,12 -3,3 -7,5 -11,5 -4,0 -8,-2 -11,-5 -3,-3 -5,-7 -5,-12 z m 1,108 0,-82 29,0 0,82 -29,0 z"
   id="path233"
   inkscape:connector-curvature="0"
   style="fill:#000000" />
  <path
   class="fil2"
   d="m 3743.1112,9332.2222 c 0,-5 -2,-9 -5,-12 -3,-2 -7,-4 -11,-4 -5,0 -9,1 -11,4 -3,3 -5,6 -6,12 l 33,0 z m 29,16 -63,0 c 0,6 2,11 5,15 3,3 8,5 14,5 4,0 8,-1 11,-3 3,-1 5,-4 7,-7 l 22,9 c -3,6 -8,11 -14,14 -7,4 -15,5 -25,5 -14,0 -25,-4 -34,-11 -9,-8 -13,-19 -13,-32 0,-13 4,-23 13,-32 9,-8 20,-13 33,-13 13,0 24,5 32,13 8,9 12,21 12,36 l 0,1 z"
   id="path235"
   inkscape:connector-curvature="0"
   style="fill:#000000" />
  <path
   class="fil2"
   d="m 3781.1112,9376.2222 6,-22 c 4,4 9,7 14,9 5,2 10,3 15,3 4,0 6,-1 8,-2 2,-1 3,-3 3,-5 0,-4 -4,-6 -11,-8 -3,-1 -5,-1 -6,-2 -9,-2 -15,-5 -19,-9 -4,-4 -6,-9 -6,-15 0,-8 3,-15 9,-19 6,-5 14,-8 24,-8 5,0 11,1 16,2 6,2 11,3 17,6 l -6,20 c -4,-3 -8,-5 -12,-6 -4,-1 -8,-2 -12,-2 -3,0 -5,0 -7,1 -2,2 -3,3 -3,5 0,3 4,5 12,7 2,1 3,1 4,1 10,3 17,7 21,11 4,3 6,9 6,15 0,9 -4,16 -10,21 -7,5 -15,7 -26,7 -7,0 -14,0 -20,-2 -6,-2 -12,-4 -17,-8 z"
   id="path237"
   inkscape:connector-curvature="0"
   style="fill:#000000" />
  <path
   class="fil2"
   d="m 4008.1112,9326.2222 c 0,19 -4,33 -12,44 -8,11 -19,16 -33,16 -14,0 -25,-5 -34,-16 -8,-11 -12,-26 -12,-45 0,-20 4,-35 12,-46 9,-11 20,-16 34,-16 14,0 25,5 33,16 8,11 12,27 12,47 z m -61,-1 c 0,13 2,22 4,28 2,6 6,9 12,9 5,0 8,-3 11,-9 2,-6 4,-15 4,-28 0,-13 -2,-23 -4,-29 -3,-6 -6,-9 -11,-9 -6,0 -10,3 -12,9 -2,6 -4,15 -4,29 z"
   id="path239"
   inkscape:connector-curvature="0"
   style="fill:#000000" />
  <path
   class="fil2"
   d="m 4122.1112,9409.2222 -18,12 c -10,-12 -17,-24 -22,-37 -5,-13 -7,-28 -7,-43 0,-15 2,-29 7,-43 5,-13 12,-25 22,-37 l 19,12 c -8,9 -14,20 -18,31 -4,11 -6,23 -6,37 0,13 2,26 6,37 4,11 10,21 17,31 z"
   id="path241"
   inkscape:connector-curvature="0"
   style="fill:#000000" />
  <path
   class="fil2"
   d="m 4262.1112,9324.2222 c 0,9 -2,17 -5,24 -3,8 -7,14 -13,20 -6,6 -13,11 -21,14 -8,3 -16,4 -25,4 -8,0 -16,-1 -24,-4 -8,-3 -15,-8 -21,-14 -6,-6 -10,-12 -14,-20 -3,-8 -4,-16 -4,-24 0,-9 1,-17 4,-24 4,-8 8,-14 14,-20 6,-6 13,-11 21,-14 8,-3 16,-5 24,-5 9,0 17,2 25,5 8,3 15,8 21,14 6,6 10,12 13,20 3,7 5,15 5,24 z m -64,35 c 9,0 17,-3 23,-10 6,-7 9,-15 9,-25 0,-10 -3,-18 -9,-25 -6,-7 -14,-10 -23,-10 -9,0 -16,3 -22,10 -6,7 -9,15 -9,25 0,10 3,19 9,25 6,7 13,10 22,10 z"
   id="path243"
   inkscape:connector-curvature="0"
   style="fill:#000000" />
  <path
   class="fil2"
   d="m 4306.1112,9342.2222 c 0,7 2,12 5,16 4,3 8,5 14,5 6,0 10,-2 14,-5 3,-4 5,-9 5,-16 0,-6 -2,-11 -5,-15 -3,-3 -8,-5 -14,-5 -6,0 -10,2 -14,5 -3,4 -5,9 -5,15 z m -26,78 0,-119 27,0 0,14 c 4,-6 8,-10 13,-12 4,-3 9,-5 15,-5 12,0 21,4 28,12 6,8 10,19 10,32 0,14 -4,24 -10,32 -7,8 -16,12 -27,12 -7,0 -13,-1 -17,-3 -4,-3 -8,-7 -12,-13 1,2 1,4 1,6 0,2 0,5 0,9 l 0,35 -28,0 z"
   id="path245"
   inkscape:connector-curvature="0"
   style="fill:#000000" />
  <path
   class="fil2"
   d="m 4390.1112,9275.2222 c 0,-4 1,-8 4,-11 3,-3 7,-4 12,-4 4,0 8,1 11,4 3,3 5,7 5,11 0,5 -2,9 -5,12 -3,3 -7,5 -11,5 -5,0 -8,-2 -12,-5 -3,-3 -4,-7 -4,-12 z m 1,108 0,-82 29,0 0,82 -29,0 z"
   id="path247"
   inkscape:connector-curvature="0"
   style="fill:#000000" />
  <path
   class="fil2"
   d="m 4501.1112,9328.2222 c -3,-2 -5,-4 -8,-5 -2,-1 -5,-2 -8,-2 -6,0 -10,2 -14,6 -3,3 -5,9 -5,15 0,6 2,11 5,15 4,4 9,6 15,6 3,0 5,-1 8,-2 2,-1 5,-3 7,-5 l 0,25 c -3,2 -7,3 -10,4 -4,1 -7,1 -11,1 -13,0 -23,-4 -31,-12 -7,-8 -11,-18 -11,-32 0,-13 4,-23 12,-31 8,-8 18,-13 30,-13 5,0 8,1 12,2 3,1 6,2 9,4 l 0,24 z"
   id="path249"
   inkscape:connector-curvature="0"
   style="fill:#000000" />
  <path
   class="fil2"
   d="m 4513.1112,9409.2222 c 8,-10 14,-20 18,-31 3,-11 5,-24 5,-37 0,-14 -2,-26 -6,-37 -3,-11 -9,-22 -17,-31 l 18,-12 c 10,12 17,24 22,37 5,14 7,28 7,43 0,15 -2,30 -7,43 -5,13 -12,25 -22,37 l -18,-12 z"
   id="path251"
   inkscape:connector-curvature="0"
   style="fill:#000000" />
  <path
   class="fil2"
   d="m 4677.1112,9409.2222 -18,12 c -10,-12 -18,-24 -22,-37 -5,-13 -8,-28 -8,-43 0,-15 3,-29 8,-43 4,-13 12,-25 22,-37 l 18,12 c -8,9 -14,20 -18,31 -3,11 -5,23 -5,37 0,13 2,26 5,37 4,11 10,21 18,31 z"
   id="path253"
   inkscape:connector-curvature="0"
   style="fill:#000000" />
  <path
   class="fil2"
   d="m 4695.1112,9383.2222 0,-61 -13,0 0,-21 13,0 0,-17 c 0,-9 2,-16 8,-21 5,-5 13,-8 23,-8 1,0 3,1 5,1 2,0 4,1 7,1 l 0,22 c -2,0 -3,-1 -4,-1 -1,0 -2,0 -3,0 -3,0 -5,0 -6,2 -1,2 -2,4 -2,8 l 0,13 15,0 0,21 -15,0 0,61 -28,0 z"
   id="path255"
   inkscape:connector-curvature="0"
   style="fill:#000000" />
  <path
   class="fil2"
   d="m 4740.1112,9399.2222 58,-138 18,0 -58,138 -18,0 z"
   id="path257"
   inkscape:connector-curvature="0"
   style="fill:#000000" />
  <path
   class="fil2"
   d="m 4910.1112,9383.2222 -91,0 54,-63 c 3,-4 5,-7 7,-10 2,-4 2,-7 2,-9 0,-4 -1,-8 -4,-10 -2,-3 -6,-4 -10,-4 -5,0 -9,1 -12,4 -3,4 -4,8 -4,15 l 0,1 -29,0 0,-1 c 0,-13 4,-24 12,-32 8,-7 19,-11 33,-11 13,0 24,3 32,10 7,7 11,16 11,28 0,5 -1,11 -3,16 -3,5 -7,11 -13,17 l -21,24 36,0 0,25 z"
   id="path259"
   inkscape:connector-curvature="0"
   style="fill:#000000" />
  <path
   class="fil2"
   d="m 4925.1112,9409.2222 c 8,-10 14,-20 18,-31 3,-11 5,-24 5,-37 0,-14 -2,-26 -6,-37 -3,-11 -9,-22 -18,-31 l 19,-12 c 10,12 17,24 22,37 5,14 7,28 7,43 0,15 -2,30 -7,43 -5,13 -12,25 -22,37 l -18,-12 z"
   id="path261"
   inkscape:connector-curvature="0"
   style="fill:#000000" />
  <path
   class="fil2"
   d="m 3998.1112,9583.2222 0,-91 -26,0 14,-27 41,0 0,118 -29,0 z"
   id="path263"
   inkscape:connector-curvature="0"
   style="fill:#000000" />
  <path
   class="fil2"
   d="m 4115.1112,9523.2222 c 5,0 10,-2 13,-5 3,-3 5,-8 5,-13 0,-6 -2,-10 -5,-14 -3,-3 -8,-5 -13,-5 -6,0 -10,2 -13,5 -4,4 -5,8 -5,14 0,5 1,10 5,13 3,3 7,5 13,5 z m 1,19 c -2,0 -4,1 -6,1 -2,1 -4,1 -6,1 -10,0 -19,-4 -25,-11 -7,-7 -10,-16 -10,-27 0,-13 4,-24 12,-31 8,-8 19,-12 33,-12 14,0 25,4 33,11 8,8 12,19 12,32 0,7 -1,14 -4,22 -4,8 -9,18 -17,30 l -16,25 -34,0 28,-41 z"
   id="path265"
   inkscape:connector-curvature="0"
   style="fill:#000000" />
  <path
   class="fil2"
   d="m 4260.1112,9583.2222 -91,0 54,-63 c 3,-4 5,-7 7,-11 1,-3 2,-6 2,-8 0,-4 -1,-8 -4,-11 -3,-2 -6,-3 -10,-3 -5,0 -9,1 -12,4 -3,4 -4,8 -4,15 l 0,1 -29,0 0,-1 c 0,-13 4,-24 12,-32 8,-7 19,-11 32,-11 14,0 24,3 32,10 8,7 12,16 12,28 0,5 -1,11 -4,16 -2,5 -6,11 -12,17 l -21,24 36,0 0,25 z"
   id="path267"
   inkscape:connector-curvature="0"
   style="fill:#000000" />
  <path
   class="fil2"
   d="m 4367.1112,9526.2222 c 0,19 -4,33 -12,44 -8,11 -19,16 -33,16 -14,0 -25,-5 -33,-16 -8,-11 -12,-26 -12,-45 0,-20 4,-35 12,-46 8,-11 19,-16 33,-16 14,0 25,5 33,16 8,11 12,27 12,47 z m -60,-1 c 0,13 1,22 4,28 2,6 6,9 11,9 5,0 9,-3 12,-9 2,-6 3,-16 3,-28 0,-13 -1,-23 -3,-29 -3,-6 -7,-9 -12,-9 -5,0 -9,3 -11,9 -3,6 -4,15 -4,29 z"
   id="path269"
   inkscape:connector-curvature="0"
   style="fill:#000000" />
  <path
   class="fil2"
   d="m 3574.1112,3190.2222 0,-25 63,0 c 0,0 0,1 0,2 0,1 0,3 0,5 0,20 -5,36 -16,47 -11,12 -26,17 -45,17 -10,0 -19,-1 -26,-4 -8,-3 -14,-7 -20,-13 -6,-6 -10,-13 -13,-21 -4,-7 -5,-16 -5,-24 0,-9 1,-17 4,-25 3,-7 8,-14 14,-20 6,-6 13,-10 21,-13 7,-3 16,-4 25,-4 11,0 21,2 30,6 9,5 17,12 23,21 l -28,14 c -3,-5 -7,-8 -11,-11 -5,-2 -9,-3 -14,-3 -10,0 -18,3 -23,10 -6,6 -9,15 -9,26 0,12 3,20 9,27 5,6 13,10 23,10 8,0 15,-2 20,-6 6,-4 9,-10 10,-16 l -32,0 z"
   id="path271"
   inkscape:connector-curvature="0"
   style="fill:#000000" />
  <path
   class="fil2"
   d="m 3718.1112,3192.2222 c 0,-6 -2,-11 -5,-15 -4,-4 -8,-6 -14,-6 -6,0 -11,2 -14,6 -4,4 -5,9 -5,15 0,7 1,12 5,15 3,4 8,6 14,6 6,0 10,-2 14,-6 3,-3 5,-8 5,-15 z m 25,-41 0,82 -26,0 0,-13 c -4,6 -8,10 -13,13 -5,2 -10,4 -17,4 -11,0 -19,-4 -26,-12 -7,-8 -10,-19 -10,-33 0,-13 4,-24 10,-32 7,-7 17,-11 28,-11 6,0 12,1 16,4 5,2 8,6 12,12 l 0,-14 26,0 z"
   id="path273"
   inkscape:connector-curvature="0"
   style="fill:#000000" />
  <path
   class="fil2"
   d="m 3850.1112,3151.2222 0,42 c 0,9 -1,16 -3,21 -1,4 -4,8 -7,12 -4,3 -8,6 -14,8 -5,2 -12,3 -19,3 -7,0 -13,-1 -19,-3 -5,-2 -10,-5 -14,-8 -3,-4 -6,-8 -7,-12 -2,-5 -2,-12 -2,-21 l 0,-42 27,0 0,44 c 0,7 1,12 4,15 2,3 6,5 11,5 5,0 9,-2 11,-5 2,-3 3,-8 3,-15 l 0,-44 29,0 z"
   id="path275"
   inkscape:connector-curvature="0"
   style="fill:#000000" />
  <path
   class="fil2"
   d="m 3863.1112,3227.2222 6,-23 c 4,4 9,7 14,9 5,2 10,3 15,3 4,0 6,-1 8,-2 2,-1 3,-3 3,-5 0,-4 -4,-6 -11,-8 -3,-1 -5,-1 -6,-2 -9,-2 -15,-5 -19,-9 -4,-4 -6,-9 -6,-15 0,-8 3,-14 9,-19 6,-5 14,-7 24,-7 5,0 11,0 16,1 6,2 11,4 17,6 l -6,20 c -4,-3 -8,-5 -12,-6 -4,-1 -8,-2 -12,-2 -3,0 -5,1 -7,2 -2,1 -3,2 -3,4 0,3 4,5 12,7 2,1 3,1 4,2 10,2 17,6 21,10 4,4 6,9 6,15 0,9 -4,16 -10,21 -7,5 -15,8 -26,8 -7,0 -14,-1 -20,-3 -6,-2 -12,-4 -17,-7 z"
   id="path277"
   inkscape:connector-curvature="0"
   style="fill:#000000" />
  <path
   class="fil2"
   d="m 3943.1112,3227.2222 6,-23 c 4,4 9,7 14,9 5,2 10,3 16,3 3,0 6,-1 8,-2 2,-1 3,-3 3,-5 0,-4 -4,-6 -12,-8 -2,-1 -4,-1 -6,-2 -8,-2 -15,-5 -19,-9 -4,-4 -6,-9 -6,-15 0,-8 3,-14 9,-19 6,-5 14,-7 25,-7 5,0 10,0 16,1 5,2 11,4 17,6 l -6,20 c -4,-3 -8,-5 -12,-6 -4,-1 -8,-2 -12,-2 -3,0 -6,1 -8,2 -1,1 -2,2 -2,4 0,3 4,5 11,7 2,1 3,1 4,2 10,2 17,6 21,10 4,4 6,9 6,15 0,9 -3,16 -10,21 -6,5 -15,8 -25,8 -7,0 -14,-1 -20,-3 -7,-2 -12,-4 -18,-7 z"
   id="path279"
   inkscape:connector-curvature="0"
   style="fill:#000000" />
  <path
   class="fil2"
   d="m 4142.1112,3193.2222 c 0,-7 -2,-11 -5,-15 -3,-3 -7,-5 -12,-5 -6,0 -10,2 -13,5 -3,4 -4,8 -4,15 0,6 1,10 4,14 3,3 7,5 13,5 5,0 9,-2 12,-5 3,-4 5,-8 5,-14 z m 29,0 c 0,5 -1,11 -4,16 -2,6 -5,10 -10,15 -4,4 -9,7 -15,9 -5,2 -11,4 -17,4 -7,0 -12,-2 -18,-4 -5,-2 -10,-5 -15,-9 -4,-4 -7,-9 -10,-15 -2,-5 -3,-11 -3,-16 0,-7 1,-12 3,-17 3,-6 6,-11 10,-15 5,-4 9,-7 15,-9 5,-2 11,-3 18,-3 6,0 12,1 17,3 6,2 11,5 15,9 5,4 8,9 10,15 3,5 4,11 4,17 z"
   id="path281"
   inkscape:connector-curvature="0"
   style="fill:#000000" />
  <path
   class="fil2"
   d="m 4213.1112,3192.2222 c 0,7 2,12 5,15 4,4 8,6 14,6 6,0 11,-2 14,-5 3,-4 5,-9 5,-16 0,-6 -2,-11 -5,-15 -3,-3 -8,-5 -14,-5 -6,0 -10,2 -14,5 -3,4 -5,9 -5,15 z m -25,-85 27,0 0,43 c 0,4 0,7 0,9 0,2 0,4 -1,6 4,-6 8,-10 12,-13 4,-2 10,-3 17,-3 11,0 20,4 27,12 6,8 10,18 10,31 0,14 -4,25 -10,33 -7,8 -16,12 -28,12 -6,0 -11,-2 -15,-5 -5,-2 -9,-6 -13,-12 l 0,13 -26,0 0,-126 z"
   id="path283"
   inkscape:connector-curvature="0"
   style="fill:#000000" />
  <path
   class="fil2"
   d="m 4297.1112,3126.2222 c 0,-5 1,-9 4,-12 4,-3 7,-4 12,-4 4,0 8,1 11,4 3,3 5,7 5,12 0,4 -2,8 -5,11 -3,3 -7,5 -11,5 -5,0 -8,-2 -12,-5 -3,-3 -4,-7 -4,-11 z m 1,144 0,-119 29,0 0,119 -29,0 z"
   id="path285"
   inkscape:connector-curvature="0"
   style="fill:#000000" />
  <path
   class="fil2"
   d="m 4406.1112,3182.2222 c -1,-5 -2,-9 -5,-12 -3,-2 -7,-4 -11,-4 -5,0 -9,2 -12,4 -2,3 -4,7 -5,12 l 33,0 z m 29,16 -63,0 c 0,6 2,11 5,15 3,3 8,5 14,5 4,0 8,-1 11,-3 3,-1 5,-4 7,-7 l 21,9 c -2,6 -7,11 -13,14 -7,4 -15,6 -25,6 -14,0 -26,-4 -34,-12 -9,-8 -13,-19 -13,-32 0,-13 4,-23 13,-32 8,-8 19,-12 33,-12 13,0 24,4 32,12 8,9 12,21 12,36 l 0,1 z"
   id="path287"
   inkscape:connector-curvature="0"
   style="fill:#000000" />
  <path
   class="fil2"
   d="m 4510.1112,3178.2222 c -3,-2 -5,-4 -8,-5 -3,-1 -5,-2 -8,-2 -6,0 -11,2 -14,6 -3,4 -5,9 -5,15 0,6 2,12 5,15 4,4 9,6 14,6 3,0 6,-1 9,-2 2,-1 5,-3 7,-5 l 0,25 c -3,2 -7,3 -10,4 -4,1 -7,2 -11,2 -13,0 -23,-5 -31,-13 -8,-8 -12,-18 -12,-32 0,-12 4,-23 12,-31 8,-8 19,-12 31,-12 4,0 8,0 12,1 3,1 6,2 9,4 l 0,24 z"
   id="path289"
   inkscape:connector-curvature="0"
   style="fill:#000000" />
  <path
   class="fil2"
   d="m 4532.1112,3233.2222 0,-61 -12,0 0,-21 12,0 0,-24 29,0 0,24 12,0 0,21 -12,0 0,61 -29,0 z"
   id="path291"
   inkscape:connector-curvature="0"
   style="fill:#000000" />
  <path
   class="fil2"
   d="m 4586.1112,3126.2222 c 0,-5 2,-9 5,-12 3,-3 7,-4 11,-4 5,0 8,1 11,4 4,3 5,7 5,12 0,4 -2,8 -5,11 -3,3 -7,5 -11,5 -4,0 -8,-2 -11,-5 -3,-3 -5,-7 -5,-11 z m 2,107 0,-82 29,0 0,82 -29,0 z"
   id="path293"
   inkscape:connector-curvature="0"
   style="fill:#000000" />
  <path
   class="fil2"
   d="m 4664.1112,3233.2222 -37,-82 31,0 13,36 c 1,1 1,1 1,2 2,5 3,8 3,11 1,-2 2,-6 4,-10 0,-1 0,-2 0,-3 l 14,-36 31,0 -38,82 -22,0 z"
   id="path295"
   inkscape:connector-curvature="0"
   style="fill:#000000" />
  <path
   class="fil2"
   d="m 4789.1112,3182.2222 c 0,-5 -2,-9 -5,-12 -3,-2 -7,-4 -11,-4 -5,0 -9,2 -11,4 -3,3 -5,7 -6,12 l 33,0 z m 29,16 -63,0 c 0,6 2,11 5,15 3,3 8,5 14,5 4,0 8,-1 11,-3 3,-1 5,-4 7,-7 l 22,9 c -3,6 -8,11 -14,14 -7,4 -15,6 -25,6 -14,0 -25,-4 -34,-12 -9,-8 -13,-19 -13,-32 0,-13 4,-23 13,-32 9,-8 20,-12 33,-12 13,0 24,4 32,12 8,9 12,21 12,36 l 0,1 z"
   id="path297"
   inkscape:connector-curvature="0"
   style="fill:#000000" />
  <path
   class="fil2"
   d="m 3996.1112,3433.2222 0,-91 -26,0 14,-27 41,0 0,118 -29,0 z"
   id="path299"
   inkscape:connector-curvature="0"
   style="fill:#000000" />
  <path
   class="fil2"
   d="m 4112.1112,3360.2222 c 4,0 8,-1 10,-4 3,-2 4,-5 4,-10 0,-4 -1,-7 -4,-10 -2,-2 -6,-3 -10,-3 -5,0 -8,1 -10,3 -3,3 -4,6 -4,10 0,4 1,8 4,10 2,3 6,4 10,4 z m 0,53 c 5,0 9,-2 12,-5 3,-2 4,-6 4,-11 0,-5 -1,-9 -4,-12 -3,-2 -7,-4 -12,-4 -5,0 -9,2 -12,4 -3,3 -5,7 -5,12 0,5 2,9 5,11 3,3 7,5 12,5 z m 21,-43 c 8,1 14,4 18,10 4,5 6,12 6,20 0,12 -4,21 -12,27 -8,6 -19,9 -33,9 -14,0 -26,-3 -34,-9 -8,-6 -12,-15 -12,-27 0,-8 3,-15 7,-20 4,-6 10,-9 18,-10 -6,-2 -11,-5 -15,-9 -3,-4 -5,-10 -5,-16 0,-10 4,-18 11,-24 7,-5 17,-8 30,-8 13,0 23,3 30,8 7,6 10,14 10,24 0,6 -1,12 -5,16 -3,4 -8,7 -14,9 z"
   id="path301"
   inkscape:connector-curvature="0"
   style="fill:#000000" />
  <path
   class="fil2"
   d="m 4204.1112,3433.2222 0,-91 -26,0 14,-27 42,0 0,118 -30,0 z"
   id="path303"
   inkscape:connector-curvature="0"
   style="fill:#000000" />
  <path
   class="fil2"
   d="m 4284.1112,3433.2222 45,-91 -51,0 0,-27 91,0 0,6 -51,112 -34,0 z"
   id="path305"
   inkscape:connector-curvature="0"
   style="fill:#000000" />
  <path
   class="fil2"
   d="m 3224.1112,5170.2222 0,35 c -5,-5 -9,-8 -13,-11 -5,-2 -10,-3 -15,-3 -9,0 -17,3 -22,9 -6,7 -9,15 -9,25 0,10 3,18 9,24 6,6 13,10 22,10 5,0 10,-2 15,-4 4,-2 8,-6 13,-11 l 0,36 c -5,2 -10,4 -16,5 -5,2 -10,2 -15,2 -7,0 -13,-1 -18,-2 -6,-2 -11,-4 -15,-7 -9,-6 -16,-14 -21,-23 -4,-9 -7,-19 -7,-30 0,-9 2,-18 5,-25 3,-8 7,-14 13,-20 6,-6 12,-11 19,-13 7,-3 15,-5 24,-5 5,0 10,1 15,2 6,1 11,3 16,6 z"
   id="path307"
   inkscape:connector-curvature="0"
   style="fill:#000000" />
  <path
   class="fil2"
   d="m 3241.1112,5284.2222 0,-126 29,0 0,126 -29,0 z"
   id="path309"
   inkscape:connector-curvature="0"
   style="fill:#000000" />
  <path
   class="fil2"
   d="m 3355.1112,5243.2222 c 0,-6 -2,-11 -5,-15 -4,-4 -9,-6 -14,-6 -6,0 -11,2 -14,6 -4,3 -5,9 -5,15 0,6 1,11 5,15 3,4 8,6 14,6 5,0 10,-2 14,-6 3,-4 5,-9 5,-15 z m 25,-41 0,82 -26,0 0,-13 c -4,6 -9,10 -13,12 -5,3 -11,4 -17,4 -11,0 -20,-4 -26,-12 -7,-8 -10,-18 -10,-32 0,-13 3,-24 10,-32 7,-8 16,-12 28,-12 6,0 11,2 16,4 4,3 8,7 11,13 l 0,-14 27,0 z"
   id="path311"
   inkscape:connector-curvature="0"
   style="fill:#000000" />
  <path
   class="fil2"
   d="m 3402.1112,5284.2222 0,-82 28,0 0,19 c 2,-7 6,-12 11,-15 5,-4 11,-6 18,-6 1,0 2,0 3,0 1,0 3,1 4,1 l -3,26 c -2,-1 -3,-1 -5,-1 -2,0 -3,-1 -5,-1 -7,0 -12,3 -16,7 -4,4 -6,10 -6,18 l 0,34 -29,0 z"
   id="path313"
   inkscape:connector-curvature="0"
   style="fill:#000000" />
  <path
   class="fil2"
   d="m 3477.1112,5284.2222 0,-126 28,0 0,80 30,-36 36,0 -37,40 40,42 -38,0 -31,-36 0,36 -28,0 z"
   id="path315"
   inkscape:connector-curvature="0"
   style="fill:#000000" />
  <path
   class="fil2"
   d="m 3637.1112,5284.2222 0,-119 25,0 c 19,0 32,1 39,3 8,1 15,4 21,8 7,6 13,12 17,21 4,8 6,17 6,28 0,10 -2,20 -6,28 -4,8 -10,15 -17,20 -6,4 -13,7 -20,9 -7,1 -19,2 -34,2 l -6,0 -25,0 z m 33,-26 5,0 c 13,0 22,-3 28,-8 6,-6 9,-14 9,-25 0,-12 -3,-20 -9,-25 -6,-6 -15,-8 -28,-8 l -5,0 0,66 z"
   id="path317"
   inkscape:connector-curvature="0"
   style="fill:#000000" />
  <path
   class="fil2"
   d="m 3821.1112,5243.2222 c 0,-6 -1,-11 -4,-14 -3,-4 -8,-5 -13,-5 -5,0 -9,1 -12,5 -4,3 -5,8 -5,14 0,6 1,11 5,15 3,3 7,5 12,5 5,0 10,-2 13,-5 3,-4 4,-9 4,-15 z m 29,0 c 0,6 -1,12 -3,17 -3,6 -6,10 -10,15 -5,4 -10,7 -15,9 -6,2 -12,3 -18,3 -6,0 -12,-1 -18,-3 -5,-2 -10,-5 -14,-9 -5,-5 -8,-9 -10,-15 -3,-5 -4,-11 -4,-17 0,-6 1,-11 4,-17 2,-5 5,-10 10,-14 4,-4 9,-7 14,-9 6,-3 12,-4 18,-4 6,0 12,1 18,4 5,2 10,5 15,9 4,4 7,9 10,14 2,6 3,11 3,17 z"
   id="path319"
   inkscape:connector-curvature="0"
   style="fill:#000000" />
  <path
   class="fil2"
   d="m 3951.1112,5202.2222 0,42 c 0,9 -1,16 -2,21 -2,4 -4,8 -8,12 -3,3 -8,6 -13,8 -6,1 -12,2 -19,2 -8,0 -14,-1 -19,-2 -6,-2 -10,-5 -14,-8 -4,-4 -6,-8 -8,-12 -1,-5 -2,-12 -2,-21 l 0,-42 28,0 0,44 c 0,7 1,12 3,15 3,3 6,4 11,4 5,0 9,-1 11,-4 3,-3 4,-8 4,-15 l 0,-44 28,0 z"
   id="path321"
   inkscape:connector-curvature="0"
   style="fill:#000000" />
  <path
   class="fil2"
   d="m 3998.1112,5243.2222 c 0,7 1,12 5,15 3,4 8,6 14,6 5,0 10,-2 13,-6 4,-3 6,-8 6,-15 0,-6 -2,-11 -6,-15 -3,-4 -8,-5 -13,-5 -6,0 -11,1 -14,5 -4,4 -5,9 -5,15 z m -26,-85 28,0 0,43 c 0,4 0,6 -1,9 0,2 0,4 0,6 3,-6 7,-10 11,-13 5,-2 11,-4 18,-4 10,0 19,4 26,12 7,9 10,19 10,32 0,14 -3,24 -10,32 -7,8 -16,12 -27,12 -6,0 -11,-1 -16,-4 -4,-2 -9,-7 -12,-12 l 0,13 -27,0 0,-126 z"
   id="path323"
   inkscape:connector-curvature="0"
   style="fill:#000000" />
  <path
   class="fil2"
   d="m 4083.1112,5284.2222 0,-126 29,0 0,126 -29,0 z"
   id="path325"
   inkscape:connector-curvature="0"
   style="fill:#000000" />
  <path
   class="fil2"
   d="m 4191.1112,5233.2222 c -1,-5 -3,-9 -6,-12 -3,-3 -7,-4 -11,-4 -5,0 -8,1 -11,4 -3,3 -5,6 -6,12 l 34,0 z m 28,16 -62,0 c 0,6 1,11 4,15 4,3 8,5 14,5 4,0 8,-1 11,-3 3,-1 5,-4 7,-7 l 22,9 c -3,6 -7,11 -14,14 -7,4 -15,5 -24,5 -15,0 -26,-4 -35,-12 -8,-7 -13,-18 -13,-31 0,-13 5,-23 13,-32 9,-8 20,-13 33,-13 14,0 24,5 32,13 8,9 12,21 12,36 l 0,1 z"
   id="path327"
   inkscape:connector-curvature="0"
   style="fill:#000000" />
  <path
   class="fil2"
   d="m 4346.1112,5240.2222 0,-25 64,0 c 0,1 0,2 0,3 0,1 0,2 0,4 0,21 -5,37 -16,48 -11,11 -26,17 -46,17 -9,0 -18,-1 -25,-4 -8,-3 -15,-8 -20,-14 -6,-5 -11,-12 -14,-20 -3,-8 -4,-16 -4,-24 0,-9 1,-17 4,-25 3,-7 8,-14 14,-20 6,-6 13,-10 20,-13 8,-3 16,-5 25,-5 12,0 22,3 31,7 9,5 17,12 23,21 l -28,13 c -3,-4 -7,-8 -11,-10 -5,-2 -9,-3 -15,-3 -9,0 -17,3 -23,9 -5,7 -8,16 -8,27 0,11 3,20 8,27 6,6 14,10 23,10 9,0 16,-2 21,-7 6,-4 9,-9 10,-16 l -33,0 z"
   id="path329"
   inkscape:connector-curvature="0"
   style="fill:#000000" />
  <path
   class="fil2"
   d="m 4491.1112,5243.2222 c 0,-6 -2,-11 -5,-15 -4,-4 -8,-6 -14,-6 -6,0 -11,2 -14,6 -4,3 -5,9 -5,15 0,6 1,11 5,15 3,4 8,6 14,6 6,0 10,-2 14,-6 3,-4 5,-9 5,-15 z m 25,-41 0,82 -26,0 0,-13 c -4,6 -8,10 -13,12 -5,3 -10,4 -17,4 -11,0 -20,-4 -26,-12 -7,-8 -10,-18 -10,-32 0,-13 3,-24 10,-32 7,-8 16,-12 28,-12 6,0 11,2 16,4 4,3 8,7 11,13 l 0,-14 27,0 z"
   id="path331"
   inkscape:connector-curvature="0"
   style="fill:#000000" />
  <path
   class="fil2"
   d="m 4622.1112,5202.2222 0,42 c 0,9 0,16 -2,21 -1,4 -4,8 -7,12 -4,3 -9,6 -14,8 -5,1 -12,2 -19,2 -7,0 -14,-1 -19,-2 -5,-2 -10,-5 -14,-8 -3,-4 -6,-8 -7,-12 -2,-5 -3,-12 -3,-21 l 0,-42 28,0 0,44 c 0,7 1,12 4,15 2,3 6,4 11,4 5,0 8,-1 11,-4 2,-3 3,-8 3,-15 l 0,-44 28,0 z"
   id="path333"
   inkscape:connector-curvature="0"
   style="fill:#000000" />
  <path
   class="fil2"
   d="m 4636.1112,5277.2222 6,-22 c 4,4 8,7 14,9 5,2 10,3 15,3 4,0 6,-1 8,-2 2,-1 3,-3 3,-5 0,-4 -4,-6 -11,-8 -3,-1 -5,-1 -6,-2 -9,-2 -15,-5 -19,-9 -4,-4 -6,-9 -6,-15 0,-8 3,-15 9,-19 6,-5 14,-8 24,-8 5,0 11,1 16,2 6,1 11,3 17,6 l -6,20 c -4,-3 -8,-5 -12,-6 -4,-1 -8,-2 -12,-2 -3,0 -6,0 -7,1 -2,1 -3,3 -3,5 0,3 4,5 12,7 1,1 3,1 4,1 10,3 17,7 20,10 4,4 6,10 6,16 0,9 -3,15 -9,21 -7,5 -15,7 -26,7 -7,0 -14,0 -20,-2 -6,-2 -12,-4 -17,-8 z"
   id="path335"
   inkscape:connector-curvature="0"
   style="fill:#000000" />
  <path
   class="fil2"
   d="m 4716.1112,5277.2222 6,-22 c 4,4 9,7 14,9 5,2 10,3 15,3 4,0 7,-1 9,-2 2,-1 3,-3 3,-5 0,-4 -4,-6 -12,-8 -2,-1 -4,-1 -6,-2 -9,-2 -15,-5 -19,-9 -4,-4 -6,-9 -6,-15 0,-8 3,-15 9,-19 6,-5 14,-8 25,-8 5,0 10,1 16,2 5,1 11,3 16,6 l -6,20 c -3,-3 -7,-5 -11,-6 -4,-1 -8,-2 -12,-2 -3,0 -6,0 -8,1 -1,1 -2,3 -2,5 0,3 4,5 11,7 2,1 3,1 4,1 10,3 17,7 21,10 4,4 6,10 6,16 0,9 -3,15 -10,21 -6,5 -15,7 -25,7 -8,0 -14,0 -20,-2 -7,-2 -12,-4 -18,-8 z"
   id="path337"
   inkscape:connector-curvature="0"
   style="fill:#000000" />
  <path
   class="fil2"
   d="m 4901.1112,5310.2222 -17,12 c -10,-12 -18,-24 -23,-37 -4,-14 -7,-28 -7,-43 0,-15 3,-29 7,-43 5,-13 13,-25 23,-37 l 18,12 c -8,9 -14,19 -18,30 -3,12 -5,24 -5,38 0,13 1,26 5,37 4,11 10,21 17,31 z"
   id="path339"
   inkscape:connector-curvature="0"
   style="fill:#000000" />
  <path
   class="fil2"
   d="m 4920.1112,5284.2222 0,-61 -13,0 0,-21 13,0 0,-17 c 0,-9 2,-17 8,-21 5,-5 13,-8 23,-8 1,0 3,0 5,1 2,0 4,0 7,1 l 0,22 c -2,0 -3,-1 -4,-1 -1,0 -2,0 -3,0 -3,0 -5,0 -6,2 -1,2 -2,4 -2,8 l 0,13 15,0 0,21 -15,0 0,61 -28,0 z"
   id="path341"
   inkscape:connector-curvature="0"
   style="fill:#000000" />
  <path
   class="fil2"
   d="m 4965.1112,5300.2222 58,-138 18,0 -58,138 -18,0 z"
   id="path343"
   inkscape:connector-curvature="0"
   style="fill:#000000" />
  <path
   class="fil2"
   d="m 5093.1112,5211.2222 c 4,0 8,-1 10,-4 3,-2 4,-6 4,-10 0,-4 -1,-7 -4,-10 -2,-2 -6,-3 -10,-3 -4,0 -8,1 -10,3 -3,3 -4,6 -4,10 0,4 1,8 4,10 2,3 6,4 10,4 z m 0,53 c 5,0 9,-2 12,-5 3,-3 5,-6 5,-11 0,-5 -2,-9 -5,-12 -3,-3 -7,-4 -12,-4 -5,0 -9,1 -12,4 -3,3 -4,7 -4,12 0,5 1,8 4,11 3,3 7,5 12,5 z m 21,-43 c 8,1 14,4 18,10 4,5 7,12 7,20 0,12 -4,21 -12,27 -8,6 -20,9 -34,9 -14,0 -25,-3 -33,-9 -8,-6 -12,-15 -12,-27 0,-8 2,-15 6,-20 4,-6 10,-9 18,-10 -6,-2 -11,-5 -14,-9 -4,-4 -5,-10 -5,-16 0,-10 3,-18 10,-24 7,-5 17,-8 30,-8 13,0 23,3 30,8 7,6 11,14 11,24 0,6 -2,12 -5,16 -4,4 -9,7 -15,9 z"
   id="path345"
   inkscape:connector-curvature="0"
   style="fill:#000000" />
  <path
   class="fil2"
   d="m 5150.1112,5310.2222 c 8,-10 14,-20 17,-31 4,-11 6,-24 6,-37 0,-14 -2,-26 -6,-37 -4,-11 -10,-22 -18,-31 l 19,-12 c 10,12 17,24 22,37 5,13 7,28 7,43 0,15 -2,30 -7,43 -5,13 -12,25 -22,37 l -18,-12 z"
   id="path347"
   inkscape:connector-curvature="0"
   style="fill:#000000" />
  <path
   class="fil2"
   d="m 3997.1112,5484.2222 0,-91 -26,0 14,-27 42,0 0,118 -30,0 z"
   id="path349"
   inkscape:connector-curvature="0"
   style="fill:#000000" />
  <path
   class="fil2"
   d="m 4113.1112,5411.2222 c 4,0 8,-1 10,-4 3,-2 4,-6 4,-10 0,-4 -1,-7 -4,-10 -2,-2 -6,-3 -10,-3 -4,0 -8,1 -10,3 -3,3 -4,6 -4,10 0,4 1,8 4,10 2,3 6,4 10,4 z m 0,52 c 5,0 9,-1 12,-4 3,-3 5,-6 5,-11 0,-5 -2,-9 -5,-12 -3,-3 -7,-4 -12,-4 -5,0 -9,1 -12,4 -3,3 -4,7 -4,12 0,4 1,8 4,11 3,3 7,4 12,4 z m 21,-43 c 8,2 14,5 18,11 4,5 7,12 7,20 0,12 -4,20 -12,27 -8,6 -20,9 -34,9 -14,0 -25,-3 -33,-9 -8,-7 -12,-15 -12,-27 0,-8 2,-15 6,-20 4,-6 10,-9 18,-11 -6,-1 -11,-4 -14,-8 -4,-4 -5,-10 -5,-16 0,-10 3,-18 10,-24 7,-5 17,-8 30,-8 13,0 23,3 30,8 7,6 11,14 11,24 0,6 -2,12 -5,16 -4,4 -9,7 -15,8 z"
   id="path351"
   inkscape:connector-curvature="0"
   style="fill:#000000" />
  <path
   class="fil2"
   d="m 4217.1112,5411.2222 c 5,0 8,-1 11,-4 2,-2 3,-6 3,-10 0,-4 -1,-7 -3,-10 -3,-2 -6,-3 -11,-3 -4,0 -8,1 -10,3 -3,3 -4,6 -4,10 0,4 1,8 4,10 3,3 6,4 10,4 z m 0,52 c 5,0 9,-1 12,-4 3,-3 5,-6 5,-11 0,-5 -2,-9 -5,-12 -3,-3 -7,-4 -12,-4 -5,0 -9,1 -12,4 -3,3 -4,7 -4,12 0,4 1,8 4,11 3,3 7,4 12,4 z m 21,-43 c 8,2 14,5 18,11 5,5 7,12 7,20 0,12 -4,20 -12,27 -8,6 -19,9 -34,9 -14,0 -25,-3 -33,-9 -8,-7 -12,-15 -12,-27 0,-8 2,-15 6,-20 5,-6 11,-9 18,-11 -6,-1 -11,-4 -14,-8 -4,-4 -5,-10 -5,-16 0,-10 3,-18 10,-24 8,-5 17,-8 30,-8 13,0 23,3 30,8 7,6 11,14 11,24 0,6 -2,12 -5,16 -4,4 -9,7 -15,8 z"
   id="path353"
   inkscape:connector-curvature="0"
   style="fill:#000000" />
  <path
   class="fil2"
   d="m 4321.1112,5411.2222 c 5,0 8,-1 11,-4 2,-2 4,-6 4,-10 0,-4 -2,-7 -4,-10 -3,-2 -6,-3 -11,-3 -4,0 -7,1 -10,3 -2,3 -4,6 -4,10 0,4 2,8 4,10 3,3 6,4 10,4 z m 0,52 c 5,0 10,-1 12,-4 3,-3 5,-6 5,-11 0,-5 -2,-9 -5,-12 -2,-3 -7,-4 -12,-4 -5,0 -9,1 -12,4 -3,3 -4,7 -4,12 0,4 1,8 4,11 3,3 7,4 12,4 z m 21,-43 c 8,2 14,5 18,11 5,5 7,12 7,20 0,12 -4,20 -12,27 -8,6 -19,9 -34,9 -14,0 -25,-3 -33,-9 -8,-7 -12,-15 -12,-27 0,-8 2,-15 6,-20 5,-6 11,-9 19,-11 -7,-1 -12,-4 -15,-8 -3,-4 -5,-10 -5,-16 0,-10 3,-18 11,-24 7,-5 17,-8 29,-8 13,0 23,3 30,8 7,6 11,14 11,24 0,6 -2,12 -5,16 -3,4 -8,7 -15,8 z"
   id="path355"
   inkscape:connector-curvature="0"
   style="fill:#000000" />
  <path
   class="fil2"
   d="m 3467.1112,7234.2222 -106,0 60,-93 -48,0 0,-26 100,0 -60,93 54,0 0,26 z"
   id="path357"
   inkscape:connector-curvature="0"
   style="fill:#000000" />
  <path
   class="fil2"
   d="m 3541.1112,7183.2222 c -1,-5 -2,-9 -5,-12 -3,-3 -7,-4 -11,-4 -5,0 -9,1 -12,4 -2,3 -4,6 -5,12 l 33,0 z m 28,16 -62,0 c 0,6 2,11 5,15 3,3 8,5 14,5 4,0 8,-1 11,-3 3,-1 5,-4 7,-7 l 21,9 c -2,6 -7,11 -13,14 -7,4 -15,5 -25,5 -14,0 -26,-4 -34,-12 -9,-7 -13,-18 -13,-31 0,-13 4,-23 13,-32 8,-8 19,-13 33,-13 13,0 24,5 32,13 8,9 11,21 11,36 l 0,1 z"
   id="path359"
   inkscape:connector-curvature="0"
   style="fill:#000000" />
  <path
   class="fil2"
   d="m 3585.1112,7126.2222 c 0,-4 2,-8 5,-11 3,-3 7,-4 11,-4 5,0 9,1 12,4 3,3 4,7 4,11 0,5 -1,9 -4,12 -3,3 -7,5 -12,5 -4,0 -8,-2 -11,-5 -3,-3 -5,-7 -5,-12 z m 2,108 0,-82 29,0 0,82 -29,0 z"
   id="path361"
   inkscape:connector-curvature="0"
   style="fill:#000000" />
  <path
   class="fil2"
   d="m 3630.1112,7227.2222 6,-22 c 5,4 9,7 14,9 5,2 11,3 16,3 3,0 6,-1 8,-2 2,-1 3,-3 3,-5 0,-4 -4,-6 -12,-8 -2,-1 -4,-1 -6,-2 -8,-2 -15,-5 -19,-9 -3,-4 -5,-9 -5,-15 0,-8 3,-15 9,-19 6,-5 14,-8 24,-8 5,0 11,1 16,2 5,1 11,3 17,6 l -6,20 c -4,-3 -8,-5 -12,-6 -4,-1 -8,-2 -12,-2 -3,0 -6,0 -7,1 -2,1 -3,3 -3,5 0,3 4,5 11,7 2,1 3,1 4,1 10,3 17,7 21,10 4,4 6,10 6,16 0,9 -3,15 -9,21 -7,5 -15,7 -26,7 -7,0 -14,0 -20,-2 -6,-2 -12,-4 -18,-8 z"
   id="path363"
   inkscape:connector-curvature="0"
   style="fill:#000000" />
  <path
   class="fil2"
   d="m 3711.1112,7227.2222 6,-22 c 4,4 9,7 14,9 5,2 10,3 15,3 4,0 7,-1 9,-2 1,-1 2,-3 2,-5 0,-4 -3,-6 -11,-8 -3,-1 -5,-1 -6,-2 -9,-2 -15,-5 -19,-9 -4,-4 -6,-9 -6,-15 0,-8 3,-15 9,-19 6,-5 14,-8 24,-8 6,0 11,1 17,2 5,1 11,3 16,6 l -6,20 c -4,-3 -7,-5 -11,-6 -4,-1 -8,-2 -12,-2 -4,0 -6,0 -8,1 -2,1 -2,3 -2,5 0,3 3,5 11,7 2,1 3,1 4,1 10,3 17,7 21,10 4,4 6,10 6,16 0,9 -3,15 -10,21 -6,5 -15,7 -26,7 -7,0 -13,0 -20,-2 -6,-2 -12,-4 -17,-8 z"
   id="path365"
   inkscape:connector-curvature="0"
   style="fill:#000000" />
  <path
   class="fil2"
   d="m 3884.1112,7234.2222 -31,0 0,-119 34,0 c 14,0 23,1 28,2 6,1 10,4 14,7 4,3 8,8 10,13 2,6 3,12 3,19 0,7 -1,13 -3,18 -2,6 -6,10 -10,14 -3,2 -7,4 -12,5 -5,1 -12,2 -22,2 l -5,0 -6,0 0,39 z m 0,-65 6,0 c 8,0 13,-1 16,-4 3,-2 5,-5 5,-10 0,-5 -2,-9 -5,-11 -3,-2 -8,-3 -16,-3 l -6,0 0,28 z"
   id="path367"
   inkscape:connector-curvature="0"
   style="fill:#000000" />
  <path
   class="fil2"
   d="m 3958.1112,7234.2222 0,-126 29,0 0,126 -29,0 z"
   id="path369"
   inkscape:connector-curvature="0"
   style="fill:#000000" />
  <path
   class="fil2"
   d="m 4072.1112,7193.2222 c 0,-6 -2,-11 -6,-15 -3,-4 -8,-6 -14,-6 -6,0 -10,2 -14,6 -3,3 -5,9 -5,15 0,6 2,11 5,15 4,4 9,6 14,6 6,0 11,-2 14,-6 4,-4 6,-9 6,-15 z m 25,-41 0,82 -27,0 0,-13 c -3,6 -8,10 -12,12 -5,3 -11,4 -17,4 -11,0 -20,-4 -26,-12 -7,-8 -10,-18 -10,-32 0,-13 3,-24 10,-32 7,-8 16,-12 28,-12 6,0 11,2 16,4 4,3 8,7 11,13 l 0,-14 27,0 z"
   id="path371"
   inkscape:connector-curvature="0"
   style="fill:#000000" />
  <path
   class="fil2"
   d="m 4119.1112,7234.2222 0,-82 26,0 0,17 c 4,-7 9,-12 14,-15 5,-3 11,-5 18,-5 5,0 10,1 14,3 4,2 8,4 10,7 2,3 4,6 5,10 1,4 1,10 1,18 l 0,47 -29,0 0,-44 c 0,-6 -1,-11 -3,-14 -2,-3 -6,-5 -10,-5 -6,0 -11,3 -13,7 -3,5 -5,12 -5,22 l 0,34 -28,0 z"
   id="path373"
   inkscape:connector-curvature="0"
   style="fill:#000000" />
  <path
   class="fil2"
   d="m 4290.1112,7193.2222 c 0,-6 -1,-11 -5,-15 -3,-4 -8,-6 -14,-6 -6,0 -10,2 -14,6 -3,3 -5,9 -5,15 0,6 2,11 5,15 4,4 8,6 14,6 6,0 11,-2 14,-6 4,-4 5,-9 5,-15 z m 26,-41 0,82 -27,0 0,-13 c -4,6 -8,10 -13,12 -4,3 -10,4 -16,4 -11,0 -20,-4 -27,-12 -6,-8 -10,-18 -10,-32 0,-13 4,-24 11,-32 7,-8 16,-12 27,-12 7,0 12,2 16,4 5,3 9,7 12,13 l 0,-14 27,0 z"
   id="path375"
   inkscape:connector-curvature="0"
   style="fill:#000000" />
  <path
   class="fil2"
   d="m 4338.1112,7234.2222 0,-82 27,0 0,19 c 3,-7 7,-12 12,-15 5,-4 10,-6 17,-6 2,0 3,0 4,0 1,0 2,1 3,1 l -2,26 c -2,-1 -4,-1 -5,-1 -2,0 -4,-1 -5,-1 -7,0 -13,3 -17,7 -3,4 -5,10 -5,18 l 0,34 -29,0 z"
   id="path377"
   inkscape:connector-curvature="0"
   style="fill:#000000" />
  <path
   class="fil2"
   d="m 4509.1112,7260.2222 -18,12 c -10,-12 -17,-24 -22,-37 -5,-14 -7,-28 -7,-43 0,-15 2,-29 7,-43 5,-13 12,-25 22,-37 l 19,12 c -8,9 -14,19 -18,30 -4,12 -6,24 -6,38 0,13 2,26 6,37 4,11 9,21 17,31 z"
   id="path379"
   inkscape:connector-curvature="0"
   style="fill:#000000" />
  <path
   class="fil2"
   d="m 4527.1112,7234.2222 0,-61 -12,0 0,-21 12,0 0,-17 c 0,-9 3,-17 8,-21 5,-5 13,-8 24,-8 1,0 3,0 5,1 2,0 4,0 6,1 l 0,22 c -1,0 -2,-1 -3,-1 -1,0 -2,0 -3,0 -3,0 -5,0 -6,2 -2,2 -2,4 -2,8 l 0,13 14,0 0,21 -14,0 0,61 -29,0 z"
   id="path381"
   inkscape:connector-curvature="0"
   style="fill:#000000" />
  <path
   class="fil2"
   d="m 4572.1112,7250.2222 59,-138 18,0 -58,138 -19,0 z"
   id="path383"
   inkscape:connector-curvature="0"
   style="fill:#000000" />
  <path
   class="fil2"
   d="m 4707.1112,7184.2222 0,-35 c 0,-3 0,-5 1,-8 0,-2 0,-4 0,-5 -1,2 -2,5 -3,7 -2,2 -3,5 -5,8 l -22,33 29,0 z m 0,50 0,-26 -54,0 0,-24 45,-68 37,0 0,68 13,0 0,24 -13,0 0,26 -28,0 z"
   id="path385"
   inkscape:connector-curvature="0"
   style="fill:#000000" />
  <path
   class="fil2"
   d="m 4763.1112,7221.2222 c 0,-5 1,-9 4,-12 3,-3 7,-4 12,-4 5,0 8,1 12,4 3,3 4,7 4,12 0,4 -1,8 -4,12 -4,3 -7,4 -12,4 -5,0 -9,-1 -12,-4 -3,-4 -4,-8 -4,-12 z"
   id="path387"
   inkscape:connector-curvature="0"
   style="fill:#000000" />
  <path
   class="fil2"
   d="m 4894.1112,7116.2222 0,25 -45,0 -3,15 c 3,-1 5,-1 8,-1 2,-1 5,-1 7,-1 12,0 22,4 29,11 7,7 10,17 10,30 0,13 -4,23 -13,31 -9,8 -21,11 -36,11 -7,0 -14,0 -20,-2 -6,-2 -12,-4 -16,-7 l 2,-29 2,1 c 3,4 7,7 12,10 5,2 10,4 16,4 7,0 13,-2 17,-6 4,-3 7,-8 7,-15 0,-6 -3,-11 -7,-15 -5,-4 -10,-6 -17,-6 -5,0 -10,0 -13,2 -4,2 -8,4 -11,7 l -4,-2 10,-63 65,0 z"
   id="path389"
   inkscape:connector-curvature="0"
   style="fill:#000000" />
  <path
   class="fil2"
   d="m 4914.1112,7260.2222 c 8,-10 14,-20 17,-31 4,-11 6,-24 6,-37 0,-14 -2,-26 -6,-37 -4,-11 -10,-22 -18,-31 l 19,-12 c 10,12 17,24 22,37 5,13 7,28 7,43 0,15 -2,30 -7,43 -5,13 -12,25 -22,37 l -18,-12 z"
   id="path391"
   inkscape:connector-curvature="0"
   style="fill:#000000" />
  <path
   class="fil2"
   d="m 3997.1112,7434.2222 0,-91 -26,0 14,-27 42,0 0,118 -30,0 z"
   id="path393"
   inkscape:connector-curvature="0"
   style="fill:#000000" />
  <path
   class="fil2"
   d="m 4113.1112,7361.2222 c 4,0 8,-1 10,-4 3,-2 4,-6 4,-10 0,-4 -1,-7 -4,-10 -2,-2 -6,-3 -10,-3 -4,0 -8,1 -10,3 -3,3 -4,6 -4,10 0,4 1,8 4,10 2,3 6,4 10,4 z m 0,52 c 5,0 9,-1 12,-4 3,-3 5,-6 5,-11 0,-5 -2,-9 -5,-12 -3,-3 -7,-4 -12,-4 -5,0 -9,1 -12,4 -3,3 -4,7 -4,12 0,4 1,8 4,11 3,3 7,4 12,4 z m 21,-43 c 8,2 14,5 18,11 4,5 7,12 7,20 0,12 -4,20 -12,27 -8,6 -20,9 -34,9 -14,0 -25,-3 -33,-9 -8,-7 -12,-15 -12,-27 0,-8 2,-15 6,-20 4,-6 10,-9 18,-11 -6,-1 -11,-4 -14,-8 -4,-4 -5,-10 -5,-16 0,-10 3,-18 10,-24 7,-5 17,-8 30,-8 13,0 23,3 30,8 7,6 11,14 11,24 0,6 -2,12 -5,16 -4,4 -9,7 -15,8 z"
   id="path395"
   inkscape:connector-curvature="0"
   style="fill:#000000" />
  <path
   class="fil2"
   d="m 4218.1112,7374.2222 c 6,0 10,-2 13,-5 4,-3 5,-8 5,-13 0,-6 -1,-11 -5,-14 -3,-3 -7,-5 -13,-5 -5,0 -10,2 -13,5 -3,3 -5,8 -5,14 0,5 2,10 5,13 3,3 8,5 13,5 z m 2,19 c -2,0 -4,1 -6,1 -2,0 -5,1 -7,1 -10,0 -18,-4 -25,-11 -6,-7 -10,-16 -10,-27 0,-13 4,-24 13,-32 8,-7 19,-11 33,-11 14,0 25,4 33,11 8,8 12,19 12,32 0,7 -2,14 -5,22 -3,8 -9,18 -16,30 l -17,25 -33,0 28,-41 z"
   id="path397"
   inkscape:connector-curvature="0"
   style="fill:#000000" />
  <path
   class="fil2"
   d="m 4322.1112,7377.2222 c -6,0 -10,2 -14,5 -3,3 -4,8 -4,13 0,6 1,10 4,14 4,3 8,5 14,5 5,0 9,-2 13,-5 3,-4 5,-8 5,-14 0,-5 -2,-10 -5,-13 -4,-3 -8,-5 -13,-5 z m -2,-19 c 2,0 4,-1 6,-1 2,-1 4,-1 7,-1 10,0 18,4 25,11 6,7 10,16 10,27 0,13 -5,24 -13,31 -8,8 -19,12 -33,12 -14,0 -25,-4 -33,-11 -8,-8 -12,-19 -12,-32 0,-7 1,-14 4,-21 3,-7 8,-17 17,-31 l 17,-26 33,0 -28,42 z"
   id="path399"
   inkscape:connector-curvature="0"
   style="fill:#000000" />
  <path
   class="fil2"
   d="m 2944.1112,1192.9998 0,-177.9999 37,0 c 28,0 47,1 59,4 12,2 22,6 30,13 12,7 20,18 26,30 6,11.9999 9,25.9999 9,41.9999 0,16 -3,30 -9,42 -6,13 -14,23 -26,31 -8,6 -18,10 -29,12 -11,3 -28,4 -52,4 l -8,0 -37,0 z m 48,-40 8,0 c 19,0 33,-4 42,-12 9,-7 13,-20 13,-37 0,-17 -4,-30 -13,-37.9999 -9,-7 -23,-11 -42,-11 l -8,0 0,97.9999 z"
   id="path401"
   inkscape:connector-curvature="0"
   style="fill:#000000" />
  <path
   class="fil2"
   d="m 3217.1112,1115.9998 c -1,-7 -3,-13 -8,-17 -4,-4 -10,-6 -16,-6 -7,0 -13,2 -17,5 -4,4 -7,10 -9,18 l 50,0 z m 43,24 -94,0 c 0,10 3,17 8,22 4,6 11,8 20,8 7,0 12,-1 17,-4 4,-2 8,-6 10,-11 l 33,14 c -4,9 -11,16 -21,21 -10,6 -22,8 -36,8 -22,0 -39,-6 -52,-18 -13,-12 -20,-27 -20,-47 0,-19 7,-35 20,-48 13,-13 29,-18.9999 49,-18.9999 20,0 37,6.9999 48,18.9999 12,13 18,31 18,53 l 0,2 z"
   id="path403"
   inkscape:connector-curvature="0"
   style="fill:#000000" />
  <path
   class="fil2"
   d="m 3322.1112,1192.9998 -55,-123 46,0 21,54 c 0,1 1,2 1,3 3,7 4,12 5,17 1,-4 2,-10 5,-16 0,-2 1,-3 1,-4 l 21,-54 45,0 -56,123 -34,0 z"
   id="path405"
   inkscape:connector-curvature="0"
   style="fill:#000000" />
  <path
   class="fil2"
   d="m 3511.1112,1115.9998 c -1,-7 -4,-13 -8,-17 -5,-4 -10,-6 -17,-6 -7,0 -13,2 -17,5 -4,4 -7,10 -8,18 l 50,0 z m 43,24 -94,0 c 0,10 2,17 7,22 5,6 12,8 21,8 6,0 12,-1 16,-4 5,-2 8,-6 11,-11 l 32,14 c -4,9 -11,16 -20,21 -10,6 -23,8 -37,8 -21,0 -39,-6 -52,-18 -13,-12 -19,-27 -19,-47 0,-19 6,-35 19,-48 13,-13 30,-18.9999 50,-18.9999 20,0 36,6.9999 48,18.9999 12,13 18,31 18,53 l 0,2 z"
   id="path407"
   inkscape:connector-curvature="0"
   style="fill:#000000" />
  <path
   class="fil2"
   d="m 3580.1112,1192.9998 0,-188.9999 43,0 0,188.9999 -43,0 z"
   id="path409"
   inkscape:connector-curvature="0"
   style="fill:#000000" />
  <path
   class="fil2"
   d="m 3744.1112,1131.9998 c 0,-9 -2,-16 -7,-22 -5,-5 -11,-8 -19,-8 -8,0 -14,3 -19,8 -4,6 -7,13 -7,22 0,9 3,16 7,22 5,5 11,8 19,8 8,0 14,-3 19,-8 5,-6 7,-13 7,-22 z m 43,0 c 0,9 -2,17 -5,25 -3,8 -9,15 -15,22 -7,6 -14,11 -22,14 -9,3 -18,5 -27,5 -9,0 -18,-2 -26,-5 -9,-3 -16,-8 -23,-14 -6,-6 -11,-13 -14,-22 -4,-8 -6,-16 -6,-25 0,-9 2,-18 6,-25 3,-8 8,-16 14,-22 7,-6 14,-11 23,-14 8,-3 17,-4.9999 26,-4.9999 10,0 19,1.9999 27,4.9999 8,3 15,8 22,14 7,6 12,14 15,22 3,8 5,16 5,25 z"
   id="path411"
   inkscape:connector-curvature="0"
   style="fill:#000000" />
  <path
   class="fil2"
   d="m 3851.1112,1131.9998 c 0,10 2,17 8,23 5,5 11,8 20,8 9,0 16,-3 21,-8 5,-6 8,-13 8,-23 0,-10 -3,-17 -8,-23 -5,-5 -12,-8 -21,-8 -9,0 -15,3 -20,8 -6,6 -8,13 -8,23 z m -39,116 0,-178 40,0 0,21 c 6,-9 12,-15 19,-19 7,-4 15,-5.9999 23,-5.9999 18,0 31,5.9999 42,17.9999 10,12 15,28 15,48 0,20 -5,36 -15,48 -11,12 -24,18 -40,18 -11,0 -19,-2 -26,-6 -6,-3 -12,-10 -17,-19 0,3 0,6 1,9 0,4 0,8 0,13 l 0,53 -42,0 z"
   id="path413"
   inkscape:connector-curvature="0"
   style="fill:#000000" />
  <path
   class="fil2"
   d="m 4140.1112,1192.9998 0,-67 c 0,-11 -1,-18 -4,-22 -2,-4 -7,-6 -13,-6 -8,0 -14,3 -17,8 -3,6 -5,18 -5,35 l 0,52 -42,0 0,-67 c 0,-11 -1,-18 -4,-22 -3,-4 -7,-6 -14,-6 -8,0 -13,3 -17,8 -3,6 -5,17 -5,35 l 0,52 -42,0 0,-123 43,0 0,22 c 5,-9 11,-16 18,-20 6,-4 14,-5.9999 23,-5.9999 10,0 19,1.9999 25,5.9999 6,4 11,10 14,17 5,-8 10,-13 17,-17 7,-4 15,-5.9999 25,-5.9999 7,0 14,0.9999 19,3.9999 6,2 10,6 14,11 3,4 5,8 7,14 1,5 1,13 1,25 l 0,3 0,70 -43,0 z"
   id="path415"
   inkscape:connector-curvature="0"
   style="fill:#000000" />
  <path
   class="fil2"
   d="m 4299.1112,1115.9998 c -1,-7 -3,-13 -8,-17 -4,-4 -10,-6 -17,-6 -7,0 -12,2 -16,5 -5,4 -7,10 -9,18 l 50,0 z m 43,24 -94,0 c 0,10 3,17 8,22 4,6 11,8 20,8 7,0 12,-1 17,-4 4,-2 8,-6 10,-11 l 33,14 c -4,9 -11,16 -21,21 -10,6 -22,8 -37,8 -21,0 -38,-6 -51,-18 -13,-12 -20,-27 -20,-47 0,-19 7,-35 20,-48 13,-13 29,-18.9999 49,-18.9999 20,0 36,6.9999 48,18.9999 12,13 18,31 18,53 l 0,2 z"
   id="path417"
   inkscape:connector-curvature="0"
   style="fill:#000000" />
  <path
   class="fil2"
   d="m 4367.1112,1192.9998 0,-123 40,0 0,25 c 5,-10 12,-17 20,-22 7,-5 16,-6.9999 27,-6.9999 8,0 15,0.9999 21,3.9999 6,3 11,6 15,11 4,4 6,9 7,15 2,6 2,15 2,27 l 0,70 -43,0 0,-66 c 0,-10 -2,-17 -5,-21 -3,-5 -8,-7 -15,-7 -10,0 -16,3 -20,10 -4,7 -6,18 -6,33 l 0,51 -43,0 z"
   id="path419"
   inkscape:connector-curvature="0"
   style="fill:#000000" />
  <path
   class="fil2"
   d="m 4537.1112,1192.9998 0,-92 -19,0 0,-31 19,0 0,-36.9999 42,0 0,36.9999 19,0 0,31 -19,0 0,92 -42,0 z"
   id="path421"
   inkscape:connector-curvature="0"
   style="fill:#000000" />
  <path
   class="fil2"
   d="m 4784.1112,1131.9998 c 0,-9 -2,-16 -7,-22 -5,-5 -11,-8 -19,-8 -8,0 -14,3 -19,8 -4,6 -7,13 -7,22 0,9 3,16 7,22 5,5 11,8 19,8 8,0 14,-3 19,-8 5,-6 7,-13 7,-22 z m 43,0 c 0,9 -2,17 -5,25 -3,8 -9,15 -15,22 -7,6 -14,11 -22,14 -9,3 -18,5 -27,5 -9,0 -18,-2 -26,-5 -9,-3 -16,-8 -23,-14 -6,-6 -11,-13 -14,-22 -4,-8 -6,-16 -6,-25 0,-9 2,-18 6,-25 3,-8 8,-16 14,-22 7,-6 14,-11 23,-14 8,-3 17,-4.9999 26,-4.9999 10,0 19,1.9999 27,4.9999 8,3 15,8 22,14 7,6 12,14 15,22 3,8 5,16 5,25 z"
   id="path423"
   inkscape:connector-curvature="0"
   style="fill:#000000" />
  <path
   class="fil2"
   d="m 4856.1112,1192.9998 0,-92 -18,0 0,-31 18,0 0,-24.9999 c 0,-15 4,-25 12,-33 8,-7 20,-10 35,-10 2,0 5,0 8,0 3,1 6,1 10,2 l 0,33 c -2,-1 -4,-1 -6,-2 -1,0 -3,0 -4,0 -4,0 -7,1 -9,4 -2,2 -3,6 -3,11 l 0,19.9999 22,0 0,31 -22,0 0,92 -43,0 z"
   id="path425"
   inkscape:connector-curvature="0"
   style="fill:#000000" />
  <path
   class="fil2"
   d="m 5025.1112,1192.9998 0,-92 -19,0 0,-31 19,0 0,-36.9999 43,0 0,36.9999 18,0 0,31 -18,0 0,92 -43,0 z"
   id="path427"
   inkscape:connector-curvature="0"
   style="fill:#000000" />
  <path
   class="fil2"
   d="m 5106.1112,1192.9998 0,-188.9999 43,0 0,66.9999 c 0,4 0,8 0,12 -1,3 -1,7 -1,10 5,-9 11,-16 19,-20 7,-5 16,-6.9999 26,-6.9999 8,0 15,0.9999 22,3.9999 6,3 11,6 15,11 3,4 5,9 7,15 1,6 2,15 2,27 l 0,70 -44,0 0,-66 c 0,-10 -1,-17 -5,-21 -3,-5 -8,-7 -15,-7 -9,0 -16,3 -20,10 -4,7 -6,18 -6,33 l 0,51 -43,0 z"
   id="path429"
   inkscape:connector-curvature="0"
   style="fill:#000000" />
  <path
   class="fil2"
   d="m 5354.1112,1115.9998 c 0,-7 -3,-13 -8,-17 -4,-4 -10,-6 -16,-6 -7,0 -13,2 -17,5 -4,4 -7,10 -9,18 l 50,0 z m 43,24 -94,0 c 1,10 3,17 8,22 5,6 11,8 20,8 7,0 12,-1 17,-4 4,-2 8,-6 10,-11 l 33,14 c -4,9 -11,16 -21,21 -10,6 -22,8 -36,8 -22,0 -39,-6 -52,-18 -13,-12 -20,-27 -20,-47 0,-19 7,-35 20,-48 13,-13 29,-18.9999 49,-18.9999 21,0 37,6.9999 49,18.9999 11,13 17,31 17,53 l 0,2 z"
   id="path431"
   inkscape:connector-curvature="0"
   style="fill:#000000" />
  <path
   class="fil2"
   d="m 2972.1112,1492.9998 0,-179 37,0 c 28,0 48,2 59,4 12,3 22,7 31,13 11,8 20,18 25,31 6,12 9,26 9,42 0,16 -3,30 -9,42 -5,12 -14,23 -25,30 -9,6 -19,11 -30,13 -11,3 -28,4 -51,4 l -9,0 -37,0 z m 48,-40 9,0 c 19,0 33,-4 41,-12 9,-7 14,-20 14,-37 0,-17 -5,-30 -14,-38 -8,-8 -22,-12 -41,-12 l -9,0 0,99 z"
   id="path433"
   inkscape:connector-curvature="0"
   style="fill:#000000" />
  <path
   class="fil2"
   d="m 3248.1112,1431.9998 c 0,-9 -2,-17 -7,-22 -4,-5 -11,-8 -19,-8 -8,0 -14,3 -18,8 -5,5 -7,13 -7,22 0,9 2,16 7,22 4,5 10,7 18,7 8,0 15,-2 19,-7 5,-6 7,-13 7,-22 z m 43,0 c 0,9 -1,17 -5,25 -3,8 -8,15 -15,22 -7,6 -14,11 -22,14 -9,3 -17,5 -27,5 -9,0 -18,-2 -26,-5 -8,-3 -16,-8 -22,-14 -7,-7 -12,-14 -15,-22 -4,-8 -5,-16 -5,-25 0,-9 1,-18 5,-26 3,-8 8,-15 15,-21 6,-6 14,-11 22,-14 8,-3 17,-5 26,-5 10,0 19,2 27,5 8,3 16,8 22,14 7,6 12,14 15,22 4,7 5,16 5,25 z"
   id="path435"
   inkscape:connector-curvature="0"
   style="fill:#000000" />
  <path
   class="fil2"
   d="m 3443.1112,1369.9998 0,63 c 0,14 -1,24 -3,31 -3,7 -6,13 -12,18 -5,5 -12,9 -20,12 -8,3 -18,4 -29,4 -11,0 -20,-1 -28,-4 -8,-3 -15,-7 -21,-12 -5,-5 -9,-11 -11,-18 -2,-7 -4,-17 -4,-31 l 0,-63 42,0 0,66 c 0,10 2,17 5,22 4,5 9,7 17,7 7,0 13,-2 16,-7 4,-4 5,-12 5,-22 l 0,-66 43,0 z"
   id="path437"
   inkscape:connector-curvature="0"
   style="fill:#000000" />
  <path
   class="fil2"
   d="m 3513.1112,1431.9998 c 0,9 2,17 7,22 5,6 12,9 21,9 9,0 16,-3 21,-9 5,-5 8,-13 8,-22 0,-10 -3,-18 -8,-23 -5,-6 -12,-8 -21,-8 -9,0 -16,2 -21,8 -5,5 -7,13 -7,23 z m -39,-128 42,0 0,64 c 0,6 0,10 -1,13 0,4 0,7 0,9 5,-8 10,-15 17,-18 7,-4 15,-6 26,-6 16,0 29,6 40,18 10,12 15,28 15,48 0,20 -5,36 -16,48 -10,12 -24,18 -41,18 -8,0 -16,-2 -23,-6 -7,-4 -13,-11 -19,-19 l 0,20 -40,0 0,-189 z"
   id="path439"
   inkscape:connector-curvature="0"
   style="fill:#000000" />
  <path
   class="fil2"
   d="m 3640.1112,1492.9998 0,-189 44,0 0,189 -44,0 z"
   id="path441"
   inkscape:connector-curvature="0"
   style="fill:#000000" />
  <path
   class="fil2"
   d="m 3802.1112,1415.9998 c -1,-7 -3,-13 -8,-17 -4,-4 -10,-7 -17,-7 -7,0 -12,2 -17,6 -4,4 -7,10 -8,18 l 50,0 z m 43,24 -94,0 c 0,10 3,17 7,22 5,5 12,8 21,8 6,0 12,-1 16,-4 5,-2 8,-6 11,-11 l 33,13 c -4,10 -11,17 -21,22 -10,5 -22,8 -37,8 -21,0 -38,-6 -51,-18 -13,-12 -20,-28 -20,-47 0,-19 7,-35 20,-48 13,-13 29,-19 49,-19 20,0 36,6 48,19 12,13 18,31 18,53 l 0,2 z"
   id="path443"
   inkscape:connector-curvature="0"
   style="fill:#000000" />
  <path
   class="fil2"
   d="m 4036.1112,1426.9998 0,-37 96,0 c 0,1 0,2 0,4 0,1 0,4 0,6 0,31 -8,55 -25,72 -16,17 -39,25 -68,25 -15,0 -27,-2 -39,-6 -11,-4 -21,-11 -30,-20 -8,-9 -15,-19 -20,-30 -4,-12 -7,-24 -7,-37 0,-13 3,-26 7,-37 5,-11 11,-21 21,-30 8,-9 19,-15 30,-20 12,-4 24,-7 38,-7 17,0 33,4 46,11 14,7 25,17 34,31 l -42,20 c -5,-7 -11,-12 -17,-15 -6,-4 -13,-6 -21,-6 -15,0 -26,5 -35,15 -8,10 -12,23 -12,40 0,17 4,30 12,40 9,10 20,15 35,15 12,0 23,-3 31,-9 8,-6 13,-15 14,-25 l -48,0 z"
   id="path445"
   inkscape:connector-curvature="0"
   style="fill:#000000" />
  <path
   class="fil2"
   d="m 4253.1112,1430.9998 c 0,-9 -3,-17 -8,-22 -5,-6 -12,-9 -21,-9 -9,0 -16,3 -21,9 -5,5 -8,13 -8,22 0,10 3,18 8,23 5,6 12,8 21,8 9,0 16,-2 21,-8 5,-5 8,-13 8,-23 z m 38,-61 0,123 -40,0 0,-20 c -6,9 -12,15 -19,19 -8,4 -16,6 -25,6 -17,0 -30,-6 -40,-18 -10,-12 -15,-28 -15,-48 0,-20 5,-36 16,-48 10,-12 24,-18 41,-18 10,0 18,2 24,6 7,4 13,10 18,18 l 0,-20 40,0 z"
   id="path447"
   inkscape:connector-curvature="0"
   style="fill:#000000" />
  <path
   class="fil2"
   d="m 4450.1112,1369.9998 0,63 c 0,14 -1,24 -3,31 -3,7 -6,13 -12,18 -5,5 -12,9 -20,12 -8,3 -18,4 -29,4 -11,0 -20,-1 -28,-4 -8,-3 -15,-7 -21,-12 -5,-5 -9,-11 -11,-18 -2,-7 -3,-17 -3,-31 l 0,-63 41,0 0,66 c 0,10 2,17 5,22 4,5 9,7 17,7 8,0 13,-2 16,-7 4,-4 6,-12 6,-22 l 0,-66 42,0 z"
   id="path449"
   inkscape:connector-curvature="0"
   style="fill:#000000" />
  <path
   class="fil2"
   d="m 4470.1112,1482.9998 9,-33 c 6,5 13,10 21,12 7,3 15,5 23,5 5,0 9,-1 12,-3 3,-1 4,-4 4,-7 0,-6 -5,-10 -17,-13 -4,0 -7,-1 -9,-2 -13,-3 -22,-8 -28,-14 -6,-6 -9,-13 -9,-23 0,-12 4,-21 13,-28 9,-7 22,-11 37,-11 8,0 16,1 24,3 8,2 17,4 25,8 l -9,30 c -6,-4 -11,-7 -17,-9 -6,-2 -12,-3 -18,-3 -5,0 -9,1 -11,2 -3,2 -4,4 -4,7 0,5 5,8 17,11 2,1 4,2 6,2 15,4 25,9 31,15 6,6 9,14 9,24 0,12 -5,23 -15,30 -9,8 -22,12 -38,12 -11,0 -21,-1 -30,-4 -9,-2 -18,-6 -26,-11 z"
   id="path451"
   inkscape:connector-curvature="0"
   style="fill:#000000" />
  <path
   class="fil2"
   d="m 4591.1112,1482.9998 9,-33 c 6,5 13,10 21,12 7,3 15,5 23,5 5,0 9,-1 12,-3 3,-1 4,-4 4,-7 0,-6 -5,-10 -17,-13 -4,0 -7,-1 -9,-2 -13,-3 -22,-8 -28,-14 -6,-6 -9,-13 -9,-23 0,-12 4,-21 13,-28 9,-7 21,-11 37,-11 8,0 16,1 24,3 8,2 17,4 25,8 l -9,30 c -6,-4 -12,-7 -18,-9 -6,-2 -11,-3 -17,-3 -5,0 -9,1 -12,2 -2,2 -3,4 -3,7 0,5 5,8 17,11 2,1 4,2 6,2 15,4 25,9 31,15 6,6 9,14 9,24 0,12 -5,23 -15,30 -9,8 -22,12 -38,12 -11,0 -21,-1 -30,-4 -10,-2 -18,-6 -26,-11 z"
   id="path453"
   inkscape:connector-curvature="0"
   style="fill:#000000" />
  <path
   class="fil2"
   d="m 4802.1112,1492.9998 0,-189 44,0 0,189 -44,0 z"
   id="path455"
   inkscape:connector-curvature="0"
   style="fill:#000000" />
  <path
   class="fil2"
   d="m 4964.1112,1415.9998 c -1,-7 -3,-13 -8,-17 -4,-4 -10,-7 -17,-7 -7,0 -12,2 -17,6 -4,4 -7,10 -8,18 l 50,0 z m 43,24 -94,0 c 0,10 3,17 7,22 5,5 12,8 21,8 6,0 12,-1 16,-4 5,-2 8,-6 11,-11 l 33,13 c -4,10 -11,17 -21,22 -10,5 -22,8 -37,8 -21,0 -38,-6 -51,-18 -13,-12 -20,-28 -20,-47 0,-19 7,-35 20,-48 13,-13 29,-19 49,-19 20,0 36,6 48,19 12,13 18,31 18,53 l 0,2 z"
   id="path457"
   inkscape:connector-curvature="0"
   style="fill:#000000" />
  <path
   class="fil2"
   d="m 5032.1112,1492.9998 0,-123 39,0 0,25 c 6,-10 13,-17 20,-22 8,-5 17,-7 28,-7 8,0 15,1 21,4 6,2 11,6 15,11 3,4 6,9 7,15 2,6 2,15 2,27 l 0,70 -43,0 0,-66 c 0,-10 -2,-17 -5,-21 -3,-5 -9,-7 -16,-7 -9,0 -15,3 -19,10 -5,7 -7,17 -7,32 l 0,52 -42,0 z"
   id="path459"
   inkscape:connector-curvature="0"
   style="fill:#000000" />
  <path
   class="fil2"
   d="m 5183.1112,1482.9998 9,-33 c 7,5 14,10 21,12 8,3 16,5 23,5 6,0 10,-1 13,-3 3,-1 4,-4 4,-7 0,-6 -6,-10 -17,-13 -4,0 -7,-1 -9,-2 -13,-3 -23,-8 -29,-14 -5,-6 -8,-13 -8,-23 0,-12 4,-21 13,-28 9,-7 21,-11 37,-11 7,0 16,1 24,3 8,2 16,4 25,8 l -9,30 c -6,-4 -12,-7 -18,-9 -6,-2 -12,-3 -18,-3 -5,0 -8,1 -11,2 -2,2 -4,4 -4,7 0,5 6,8 17,11 3,1 5,2 6,2 15,4 26,9 32,15 6,6 9,14 9,24 0,12 -5,23 -15,30 -10,8 -22,12 -38,12 -11,0 -21,-1 -31,-4 -9,-2 -18,-6 -26,-11 z"
   id="path461"
   inkscape:connector-curvature="0"
   style="fill:#000000" />
  <path
   class="fil2"
   d="m 5314.1112,1472.9998 c 0,-7 3,-13 7,-17 5,-5 11,-7 18,-7 7,0 13,2 17,7 5,4 7,10 7,17 0,7 -2,13 -7,18 -4,5 -10,7 -17,7 -7,0 -13,-2 -18,-7 -4,-5 -7,-11 -7,-18 z"
   id="path463"
   inkscape:connector-curvature="0"
   style="fill:#000000" />
 </g>
</svg>